<svg width="9" height="9" viewBox="0 0 9 9" version="1.1" xmlns="http://www.w3.org/2000/svg" xmlns:xlink="http://www.w3.org/1999/xlink">
<title>Vector</title>
<desc>Created using Figma</desc>
<g id="Canvas" transform="translate(-1939 368)">
<g id="Vector">
<use xlink:href="#path0_fill" transform="translate(1939 -368)" fill="#4C4C4C"/>
</g>
</g>
<defs>
<path id="path0_fill" d="M 8.89805 7.56403L 5.82305 4.47892L 8.90508 1.43363C 9.03164 1.30713 9.03164 1.10099 8.90508 0.974493L 8.02851 0.0937011C 7.96758 0.0327953 7.88555 -7.14883e-08 7.79883 -7.14883e-08C 7.71211 -7.14883e-08 7.63008 0.0351379 7.56914 0.0937011L 4.50117 3.12962L 1.42852 0.0960438C 1.36758 0.035138 1.28555 0.0023426 1.19883 0.0023426C 1.11211 0.0023426 1.03008 0.0374806 0.969141 0.0960438L 0.0949219 0.976835C -0.0316406 1.10333 -0.0316406 1.30947 0.0949219 1.43597L 3.17695 4.48126L 0.104297 7.56403C 0.0433594 7.62494 0.0082032 7.70692 0.0082032 7.7936C 0.0082032 7.88027 0.0410157 7.96226 0.104297 8.02316L 0.980859 8.90396C 1.04414 8.9672 1.12617 9 1.21055 9C 1.29258 9 1.37695 8.96955 1.44023 8.90396L 4.50117 5.83056L 7.56445 8.90161C 7.62773 8.96486 7.70977 8.99766 7.79414 8.99766C 7.87617 8.99766 7.96055 8.96721 8.02383 8.90161L 8.90039 8.02082C 8.96133 7.95992 8.99648 7.87793 8.99648 7.79125C 8.99414 7.70692 8.95898 7.62494 8.89805 7.56403Z"/>
</defs>
</svg>
