<?xml version="1.0" encoding="UTF-8"?>
<svg width="160px" height="127px" viewBox="0 0 160 127" version="1.1" xmlns="http://www.w3.org/2000/svg" xmlns:xlink="http://www.w3.org/1999/xlink">
    <!-- Generator: Sketch 46.2 (44496) - http://www.bohemiancoding.com/sketch -->
    <title>path14</title>
    <desc>Created with Sketch.</desc>
    <defs></defs>
    <g id="Page-1" stroke="none" stroke-width="1" fill="none" fill-rule="evenodd">
        <g id="Medium_icon" transform="translate(0.000000, -1.000000)" fill-rule="nonzero" fill="#FFFFFF">
            <g id="g10" transform="translate(80.000000, 64.166670) scale(-1, 1) rotate(-180.000000) translate(-80.000000, -64.166670) translate(0.000000, 0.666670)">
                <g id="g12">
                    <path d="M159.999996,107.999997 L153.671996,107.999997 C151.322663,107.999997 147.999996,104.610931 147.999996,102.441197 L147.999996,23.7999994 C147.999996,21.6275995 151.322663,18.6666662 153.671996,18.6666662 L159.999996,18.6666662 L159.999996,0 L102.666664,0 L102.666664,18.6666662 L114.666664,18.6666662 L114.666664,101.333331 L114.078664,101.333331 L86.0562645,0 L64.3609317,0 L36.6999991,101.333331 L35.9999991,101.333331 L35.9999991,18.6666662 L47.9999988,18.6666662 L47.9999988,0 L0,0 L0,18.6666662 L6.14635985,18.6666662 C8.67759978,18.6666662 11.9999997,21.6275995 11.9999997,23.7999994 L11.9999997,102.441197 C11.9999997,104.610931 8.67759978,107.999997 6.14635985,107.999997 L0,107.999997 L0,126.666663 L60.0218652,126.666663 L79.7281313,53.333332 L80.2702647,53.333332 L100.158797,126.666663 L159.999996,126.666663 L159.999996,107.999997" id="path14"></path>
                </g>
            </g>
        </g>
    </g>
</svg>