<svg xmlns="http://www.w3.org/2000/svg" xmlns:xlink="http://www.w3.org/1999/xlink" width="32" height="22" viewBox="0 0 32 22"><defs><path id="a" d="M947.33 4271.33h-26.66a2.67 2.67 0 0 1-2.67-2.66v-16c0-1.47 1.2-2.67 2.67-2.67h26.66c1.47 0 2.67 1.2 2.67 2.67v16c0 1.47-1.2 2.66-2.67 2.66zm-26.66-20c-.74 0-1.34.6-1.34 1.34v16c0 .73.6 1.33 1.34 1.33h26.66c.74 0 1.34-.6 1.34-1.33v-16c0-.74-.6-1.34-1.34-1.34z"/><path id="b" d="M934 4263.79l-11.7-7.56a.68.68 0 0 1-.19-.93c.2-.3.61-.39.92-.19l10.97 7.1 10.97-7.1c.31-.2.72-.11.92.19.2.31.11.73-.19.93z"/><path id="c" d="M921.67 4267.33a.67.67 0 0 1-.56-.29.68.68 0 0 1 .19-.93l6-4c.3-.2.72-.12.92.19.21.3.12.72-.18.92l-6 4a.66.66 0 0 1-.37.11z"/><path id="d" d="M945.67 4267.33a.62.62 0 0 1-.37-.11l-6-4a.66.66 0 0 1-.19-.92.68.68 0 0 1 .93-.19l6 4a.67.67 0 1 1-.37 1.22z"/></defs><g transform="translate(-918 -4250)"><use fill="#5473ca" xlink:href="#a"/></g><g transform="translate(-918 -4250)"><use fill="#5473ca" xlink:href="#b"/></g><g transform="translate(-918 -4250)"><use fill="#5473ca" xlink:href="#c"/></g><g transform="translate(-918 -4250)"><use fill="#5473ca" xlink:href="#d"/></g></svg>