<?xml version="1.0" encoding="UTF-8"?>
<svg width="24px" height="31px" viewBox="0 0 24 31" version="1.1" xmlns="http://www.w3.org/2000/svg" xmlns:xlink="http://www.w3.org/1999/xlink">
    <!-- Generator: Sketch 46.2 (44496) - http://www.bohemiancoding.com/sketch -->
    <title>Group 3</title>
    <desc>Created with Sketch.</desc>
    <defs></defs>
    <g id="Page-1" stroke="none" stroke-width="1" fill="none" fill-rule="evenodd">
        <g id="Desktop-HD" transform="translate(-711.000000, -1092.000000)" fill-rule="nonzero" fill="#397DCB">
            <g id="services" transform="translate(0.000000, 423.000000)">
                <g id="content-copy" transform="translate(169.000000, 457.000000)">
                    <g id="text">
                        <g id="9" transform="translate(463.000000, 124.000000)">
                            <g id="ico" transform="translate(60.000000, 75.000000)">
                                <g id="Group-3" transform="translate(19.000000, 13.000000)">
                                    <path d="M24,7.99600602 C23.9752445,7.70111729 23.8644801,7.35231749 23.7083335,7.16267315 L18.3750031,0.495992406 C17.8550434,-0.0957228209 17.0453728,-0.148798347 16.4999242,0.287561411 C15.9544756,0.723916724 15.8552623,1.61724956 16.2916709,2.16265815 L19.8888912,6.66265565 L1.33333259,6.66265565 C0.596977446,6.66265565 0,7.25965087 0,7.99600602 C0,8.73240561 0.596977446,9.32933861 1.33333259,9.32933861 L19.8888912,9.32933861 L16.2916709,13.8293361 C15.8552623,14.3747136 15.9712445,15.2478687 16.4999242,15.7044017 C17.0743772,16.2004903 17.9386967,16.0414682 18.3750031,15.4960019 L23.7083335,8.82933889 C23.9340356,8.55307237 23.9960578,8.35022804 24,7.99600602 Z" id="Shape"></path>
                                    <path d="M24,22.996006 C23.9752445,22.7011173 23.8644801,22.3523175 23.7083335,22.1626731 L18.3750031,15.4959924 C17.8550434,14.9042772 17.0453728,14.8512017 16.4999242,15.2875614 C15.9544756,15.7239167 15.8552623,16.6172496 16.2916709,17.1626581 L19.8888912,21.6626556 L1.33333259,21.6626556 C0.596977446,21.6626556 0,22.2596509 0,22.996006 C0,23.7324056 0.596977446,24.3293386 1.33333259,24.3293386 L19.8888912,24.3293386 L16.2916709,28.8293361 C15.8552623,29.3747136 15.9712445,30.2478687 16.4999242,30.7044017 C17.0743772,31.2004903 17.9386967,31.0414682 18.3750031,30.4960019 L23.7083335,23.8293389 C23.9340356,23.5530724 23.9960578,23.350228 24,22.996006 Z" id="Shape-Copy" transform="translate(12.000000, 23.001379) scale(-1, 1) translate(-12.000000, -23.001379) "></path>
                                </g>
                            </g>
                        </g>
                    </g>
                </g>
            </g>
        </g>
    </g>
</svg>