<svg xmlns="http://www.w3.org/2000/svg" xmlns:xlink="http://www.w3.org/1999/xlink" width="34" height="32" viewBox="0 0 34 32"><defs><path id="a" d="M665.57 1665.06a.5.5 0 0 0 .49-.49c0-.27.01-.8-.27-.8h-27.45v-26.7c0-.27-.58-1.07-.85-1.07a.5.5 0 0 0-.49.49v28.08c0 .27.22.49.49.49z"/><path id="b" d="M642.49 1641h4.23a.5.5 0 0 1 .49.49v23.3a.5.5 0 0 1-.49.49h-4.23a.5.5 0 0 1-.49-.49v-23.3a.5.5 0 0 1 .49-.49zm1.17 1.49v21.5h2v-21.5z"/><path id="c" d="M649.49 1653h4.23a.5.5 0 0 1 .49.49v11.91a.5.5 0 0 1-.49.49h-4.23a.5.5 0 0 1-.49-.49v-11.91a.5.5 0 0 1 .49-.49zm3.46 1.6h-2.5v10.31h2.5z"/><path id="d" d="M655.49 1647h4.23a.5.5 0 0 1 .49.49v17.17a.5.5 0 0 1-.49.49h-4.23a.5.5 0 0 1-.49-.49v-17.17a.5.5 0 0 1 .49-.49zm3.24 1.35h-2.5v15.81h2.5z"/><path id="e" d="M638.23 1636.84l-.35-.35-.34.35a.48.48 0 0 1 0-.7l-2.4 2.4a.49.49 0 0 0 0 .69c.2.19.51.19.7 0l2.04-2.04 2.05 2.04a.49.49 0 0 0 .69-.69l-2.39-2.4a.5.5 0 0 1 0 .7zm-.35-.35l-.34-.35c.19-.19.5-.19.69 0z"/><path id="f" d="M666.54 1665.23l.34-.35-.34-.34c.18-.2.48-.2.67-.02l-2.37-2.38a.5.5 0 0 0-.7 0 .5.5 0 0 0 0 .7l2.05 2.04-2.05 2.05a.49.49 0 0 0 0 .69c.2.19.51.19.7 0l2.39-2.39a.49.49 0 0 1-.69 0zm.34-.35l.35-.34c.19.19.19.5 0 .69zm.33-.36l.02.02z"/></defs><g transform="translate(-634 -1636)"><use fill="#435fd1" xlink:href="#a"/></g><g transform="translate(-634 -1636)"><use fill="#435fd1" xlink:href="#b"/></g><g transform="translate(-634 -1636)"><use fill="#435fd1" xlink:href="#c"/></g><g transform="translate(-634 -1636)"><use fill="#435fd1" xlink:href="#d"/></g><g transform="translate(-634 -1636)"><use fill="#435fd1" xlink:href="#e"/></g><g transform="translate(-634 -1636)"><use fill="#435fd1" xlink:href="#f"/></g></svg>