<?xml version="1.0" encoding="UTF-8"?>
<svg width="35px" height="24px" viewBox="0 0 35 24" version="1.1" xmlns="http://www.w3.org/2000/svg" xmlns:xlink="http://www.w3.org/1999/xlink">
    <!-- Generator: Sketch 46.2 (44496) - http://www.bohemiancoding.com/sketch -->
    <title>Shape</title>
    <desc>Created with Sketch.</desc>
    <defs></defs>
    <g id="Page-1" stroke="none" stroke-width="1" fill="none" fill-rule="evenodd">
        <g id="Desktop-HD" transform="translate(-983.000000, -1489.000000)" fill-rule="nonzero" fill="#397DCB">
            <g id="services" transform="translate(0.000000, 423.000000)">
                <g id="content-copy" transform="translate(169.000000, 457.000000)">
                    <g id="text">
                        <g id="6" transform="translate(801.000000, 589.000000)">
                            <g id="ico" transform="translate(0.000000, 2.000000)">
                                <path d="M37.0231649,18.009025 C36.9245635,18.0204971 36.8278599,18.0446818 36.735462,18.080977 L25.4071733,22.6139275 L16.0688273,22.6139275 C14.388603,22.6139275 13,24.0030319 13,25.6838639 L13,31.8237557 C13,33.5045685 14.388603,34.8936652 16.0688273,34.8936652 L16.8360344,34.8936652 L16.8360344,39.4985869 C16.8360344,40.0483521 17.0027314,40.6371203 17.4234271,41.0934857 C17.8441228,41.5498895 18.4974209,41.8010286 19.1376549,41.8010286 L20.6720688,41.8010286 C21.3123028,41.8010286 21.9656009,41.5498895 22.3862962,41.0934857 C22.806992,40.6371203 22.9736893,40.0483521 22.9736893,39.4985869 L22.9736893,34.8936652 L25.4431362,34.8936652 L36.735462,39.4146307 C37.0902083,39.5581233 37.4930472,39.5158614 37.8103165,39.3018675 C38.1275858,39.0878735 38.3177928,38.7301339 38.3178265,38.3473469 L38.3178265,28.7537964 L38.3178265,19.1602497 C38.3203924,18.8282881 38.1795976,18.5113741 37.9315684,18.2908243 C37.6835392,18.0702746 37.3524173,17.967556 37.0231649,18.009025 L37.0231649,18.009025 Z M46.2656097,19.1482608 C46.0859956,19.1678552 45.9135161,19.229477 45.7621302,19.328139 L39.6244757,23.1655584 C39.274725,23.3837389 39.0680751,23.7721584 39.0825112,24.1842361 C39.0969473,24.5963138 39.3302714,24.9693088 39.6944321,25.1624612 C40.0585928,25.3556135 40.4981449,25.3395148 40.8472113,25.1202403 L46.9848662,21.2828247 C47.452755,21.0059818 47.6632141,20.4394012 47.4895756,19.9240878 C47.3159371,19.4087745 46.8055547,19.0852619 46.2656097,19.1482608 L46.2656097,19.1482608 Z M36.0162059,20.8631052 L36.0162059,28.7537964 L36.0162059,36.6324833 L26.8097233,32.9509644 L26.8097233,24.544628 L36.0162059,20.8631052 Z M16.0688273,24.9163807 L20.6720688,24.9163807 L20.6720688,32.5912235 L17.8669683,32.5912235 L16.0688273,32.5912235 C15.6238898,32.5912235 15.3016206,32.2688348 15.3016206,31.8237557 L15.3016206,25.6838639 C15.3016206,25.2387656 15.6238898,24.9163807 16.0688273,24.9163807 Z M22.9736893,24.9163807 L24.5081028,24.9163807 L24.5081028,32.5912235 L22.9736893,32.5912235 L22.9736893,24.9163807 L22.9736893,24.9163807 Z M40.1159675,27.6025717 C39.7048181,27.6239931 39.3363244,27.8632122 39.1492946,28.2301173 C38.9622647,28.5970224 38.985113,29.035872 39.2092327,29.3813555 C39.4333523,29.7268391 39.8246942,29.9264695 40.2358437,29.9050479 L46.3734982,29.9050479 C46.7883086,29.9105874 47.174001,29.6923822 47.3830212,29.333911 C47.5920414,28.9754398 47.5920414,28.5321798 47.3830212,28.1737086 C47.174001,27.8152374 46.7883086,27.5970322 46.3734982,27.6025717 L40.2358437,27.6025717 C40.1959121,27.6004885 40.1558991,27.6004885 40.1159675,27.6025717 Z M40.187893,32.1954739 C39.6784697,32.2107811 39.2397724,32.5594215 39.1096606,33.0523642 C38.9795488,33.5453069 39.18901,34.0651517 39.6244757,34.3300416 L45.7621302,38.1674572 C46.1112054,38.387075 46.5509765,38.4033855 46.9153499,38.2102285 C47.2797233,38.0170716 47.5131679,37.6438846 47.527516,37.2316136 C47.5418641,36.8193426 47.3349289,36.4308182 46.9848662,36.2127792 L40.8472113,32.3753636 C40.6507141,32.2500056 40.4208035,32.1872763 40.187893,32.1954739 L40.187893,32.1954739 Z M19.1376549,34.8936652 L20.6720688,34.8936652 L20.6720688,39.4985869 L19.1376549,39.4985869 L19.1376549,34.8936652 Z" id="Shape"></path>
                            </g>
                        </g>
                    </g>
                </g>
            </g>
        </g>
    </g>
</svg>