<?xml version="1.0" encoding="UTF-8"?>
<svg width="26px" height="36px" viewBox="0 0 26 36" version="1.1" xmlns="http://www.w3.org/2000/svg" xmlns:xlink="http://www.w3.org/1999/xlink">
    <!-- Generator: Sketch 46.2 (44496) - http://www.bohemiancoding.com/sketch -->
    <title>Group</title>
    <desc>Created with Sketch.</desc>
    <defs></defs>
    <g id="Page-1" stroke="none" stroke-width="1" fill="none" fill-rule="evenodd">
        <g id="Desktop-HD" transform="translate(-483.000000, -1206.000000)" fill-rule="nonzero" fill="#4382D0">
            <g id="services" transform="translate(0.000000, 423.000000)">
                <g id="content-copy" transform="translate(169.000000, 457.000000)">
                    <g id="text">
                        <g id="1" transform="translate(131.000000, 313.000000)">
                            <g id="ico" transform="translate(166.000000, 2.000000)">
                                <g id="Group" transform="translate(17.000000, 11.000000)">
                                    <path d="M25.8151245,7.83104512 L19.3882802,0.273243594 C19.3820789,0.265879582 19.3743273,0.260841048 19.3677385,0.253864615 C19.3456464,0.229447103 19.3220041,0.208130227 19.2968114,0.18720093 C19.2809207,0.173635645 19.265805,0.159682781 19.2491391,0.147280235 C19.2212334,0.127126098 19.1910022,0.110460176 19.1603834,0.0941818344 C19.1444926,0.085655084 19.129377,0.0751904357 19.1127111,0.0682140035 C19.0766662,0.0523232414 19.039071,0.0406958544 19.000313,0.0302312061 C18.9871353,0.0263554105 18.9743452,0.0209292965 18.9603923,0.01782866 C18.9076815,0.00658885262 18.853808,0 18.7976089,0 L2.71305696,0 C1.21738742,0 0,1.21738742 0,2.71305696 L0,32.8155867 C0,34.3112562 1.21738742,35.5286436 2.71305696,35.5286436 L23.286943,35.5286436 C24.7826126,35.5286436 26,34.3112562 26,32.8155867 L26,8.33334824 C26,8.14924795 25.9344991,7.97134893 25.8151245,7.83104512 Z M19.5731556,2.88359197 L23.5621245,7.57446745 L19.5731556,7.57446745 L19.5731556,2.88359197 Z M23.286943,33.9783254 L2.71305696,33.9783254 C2.07200036,33.9783254 1.55031826,33.4566433 1.55031826,32.8155867 L1.55031826,2.71344454 C1.55031826,2.07238794 2.07200036,1.55070584 2.71305696,1.55070584 L18.0228374,1.55070584 L18.0228374,8.34962658 C18.0228374,8.77751442 18.3701087,9.12478571 18.7979965,9.12478571 L24.4496817,9.12478571 L24.4496817,32.8155867 C24.4496817,33.4566433 23.9279996,33.9783254 23.286943,33.9783254 Z" id="Shape"></path>
                                    <path d="M5.59886,12.82436 C5.3337734,12.82436 5.11886,13.0392734 5.11886,13.30436 C5.11886,13.5694466 5.3337734,13.78436 5.59886,13.78436 L17.61674,13.78436 C17.8818266,13.78436 18.09674,13.5694466 18.09674,13.30436 C18.09674,13.0392734 17.8818266,12.82436 17.61674,12.82436 L5.59886,12.82436 Z" id="Shape"></path>
                                    <path d="M5.59886,17.40716 C5.3337734,17.40716 5.11886,17.6220734 5.11886,17.88716 C5.11886,18.1522466 5.3337734,18.36716 5.59886,18.36716 L19.5986,18.36716 C19.8636866,18.36716 20.0786,18.1522466 20.0786,17.88716 C20.0786,17.6220734 19.8636866,17.40716 19.5986,17.40716 L5.59886,17.40716 Z" id="Shape"></path>
                                    <path d="M5.59886,21.99002 C5.3337734,21.99002 5.11886,22.2049334 5.11886,22.47002 C5.11886,22.7351066 5.3337734,22.95002 5.59886,22.95002 L15.3725,22.95002 L21.322064,22.95002 C21.5871506,22.95002 21.802064,22.7351066 21.802064,22.47002 C21.802064,22.2049334 21.5871506,21.99002 21.322064,21.99002 L15.3725,21.99002 L5.59886,21.99002 Z" id="Shape"></path>
                                </g>
                            </g>
                        </g>
                    </g>
                </g>
            </g>
        </g>
    </g>
</svg>