<svg xmlns="http://www.w3.org/2000/svg" xmlns:xlink="http://www.w3.org/1999/xlink" width="36" height="37" viewBox="0 0 36 37"><defs><path id="a" d="M779 1348.88a10.88 10.88 0 1 1 21.73 0 10.88 10.88 0 0 1-21.73 0zm1.43 0a9.46 9.46 0 1 0 9.45-9.45 9.5 9.5 0 0 0-9.45 9.45z"/><path id="b" d="M788.93 1352v-2.85c-.6-.15-1.13-.3-1.5-.45a4.55 4.55 0 0 1-.98-.75c-.22-.3-.37-.67-.37-1.2 0-.45.07-.82.3-1.2.22-.37.52-.67.97-.9.45-.22.98-.37 1.58-.37v-.98c0-.07 0-.15.07-.22.08-.08.15-.08.23-.08h.3c.07.08.07.15.07.23v.97c.75 0 1.5.15 2.18.38.22.15.37.3.37.52 0 .15-.07.3-.15.38a.57.57 0 0 1-.37.15c-.08 0-.15-.08-.23-.08a8.1 8.1 0 0 0-1.87-.3v3c.6.15 1.12.3 1.5.45.37.15.67.45.97.75a2.24 2.24 0 0 1 0 2.48c-.22.3-.52.6-.97.82-.38.23-.9.38-1.5.38v.97c0 .08 0 .15-.08.23-.07.07-.15.07-.22.07-.08 0-.15 0-.23-.07-.07-.08-.07-.15-.07-.23v-.97c-.9-.08-1.8-.23-2.63-.6l-.22-.23c-.08-.07-.08-.22-.08-.3 0-.15.08-.3.15-.37a.57.57 0 0 1 .38-.15c.07 0 .15.07.22.07.68.3 1.43.45 2.18.45zm.6 0c1.2-.07 1.8-.6 1.8-1.42 0-.3-.15-.6-.45-.75-.3-.23-.75-.38-1.35-.53zm-.53-3.97v-2.78c-.52.08-.97.23-1.27.45-.38.3-.53.6-.53.98 0 .37.15.6.45.82.3.23.75.38 1.35.53z"/><path id="c" d="M799.63 1365.36l-13.65 8.48c-.45.22-.9.37-1.42.37-.3 0-.53 0-.75-.07l-10.35-2.85c-.6.37-2.25 1.27-3.53 1.95-.22.15-.37.15-.6.07a.78.78 0 0 1-.45-.37l-3.82-8.18a.78.78 0 0 1 0-.6c.07-.15.22-.3.45-.37l9.97-3.68h.08a2.56 2.56 0 0 1 1.5 0l7.87 3.08c.9.37 1.35 1.35 1.13 2.25a1.9 1.9 0 0 1-2.25 1.35l-1.8-.45 2.62 1.35 13.5-5.4c.23-.08.38-.08.6-.08.6 0 1.2.3 1.5.83.45.82.23 1.87-.6 2.32zm-28.72 5.78l-3.15-6.6-.98.37 3.15 6.75c.3-.22.68-.37.98-.52zm27.97-7.43c0-.07-.15-.15-.3-.07l-13.72 5.55c-.15.15-.38.07-.6 0l-8.25-4.5c-.3-.15-.45-.53-.3-.9.07-.38.45-.53.82-.45l7.58 1.95c.3.07.45-.08.52-.3.08-.15 0-.38-.22-.45l-7.88-3a.45.45 0 0 0-.45 0h-.07l-6.9 2.47 3.07 6.38c.45-.23.83-.45.83-.45.15-.08.22-.08.37-.08h.23l10.65 2.93c.3.07.67 0 1.05-.15l13.57-8.48c.15-.07.15-.22 0-.45z"/></defs><g transform="translate(-765 -1337)"><use fill="#435fd1" xlink:href="#a"/></g><g transform="translate(-765 -1337)"><use fill="#435fd1" xlink:href="#b"/></g><g transform="translate(-765 -1337)"><use fill="#435fd1" xlink:href="#c"/></g></svg>