<svg xmlns="http://www.w3.org/2000/svg" xmlns:xlink="http://www.w3.org/1999/xlink" width="31" height="31" viewBox="0 0 31 31"><defs><path id="a" d="M519.31 1093.96c.09 0 .16.03.21.09.06.05.09.13.09.21v28.5h-28.65v-28.5c0-.08.03-.16.09-.21a.27.27 0 0 1 .21-.09zm-28.05-.96c-.35 0-.66.14-.89.37-.23.23-.37.54-.37.89V1123a.72.72 0 0 0 .72.72h29.13a.72.72 0 0 0 .72-.72v-28.74c0-.35-.14-.66-.37-.89a1.25 1.25 0 0 0-.89-.37z"/><path id="b" d="M500.96 1094v29.76H500V1094z"/><path id="c" d="M510.96 1094v29.76H510V1094z"/><path id="d" d="M497.43 1115.76a2.6 2.6 0 1 1-3.66 3.67 2.6 2.6 0 0 1 3.66-3.67zm-1.83.2c-.46 0-.87.18-1.16.48-.3.29-.48.7-.48 1.16 0 .45.18.86.48 1.15.29.3.7.48 1.16.48.45 0 .86-.18 1.15-.48.3-.29.48-.7.48-1.15 0-.46-.18-.87-.48-1.16a1.6 1.6 0 0 0-1.15-.48z"/><path id="e" d="M507.43 1115.76a2.6 2.6 0 1 1-3.66 3.67 2.6 2.6 0 0 1 3.66-3.67zm-.68.68a1.6 1.6 0 0 0-1.15-.48c-.46 0-.87.18-1.16.48-.3.29-.48.7-.48 1.16 0 .45.18.86.48 1.15.29.3.7.48 1.16.48.45 0 .86-.18 1.15-.48.3-.29.48-.7.48-1.15 0-.46-.18-.87-.48-1.16z"/><path id="f" d="M515.6 1115a2.59 2.59 0 0 1 2.59 2.6 2.59 2.59 0 0 1-2.59 2.59 2.6 2.6 0 1 1 0-5.19zm1.15 1.44a1.6 1.6 0 0 0-1.15-.48c-.46 0-.87.18-1.16.48-.3.29-.48.7-.48 1.16 0 .45.18.86.48 1.15.29.3.7.48 1.16.48.45 0 .86-.18 1.15-.48.3-.29.48-.7.48-1.15 0-.46-.18-.87-.48-1.16z"/><path id="g" d="M493.48 1099a.47.47 0 0 0-.48.48c0 .27.21.48.48.48h4.94a.48.48 0 0 0 0-.96z"/><path id="h" d="M493.48 1102a.47.47 0 0 0-.48.48c0 .27.21.48.48.48h4.94a.48.48 0 0 0 0-.96z"/><path id="i" d="M493.48 1105a.47.47 0 0 0-.48.48c0 .27.21.48.48.48h4.94a.48.48 0 0 0 0-.96z"/><path id="j" d="M512.48 1099a.47.47 0 0 0-.48.48c0 .27.21.48.48.48h4.94a.48.48 0 0 0 0-.96z"/><path id="k" d="M512.48 1102a.47.47 0 0 0-.48.48c0 .27.21.48.48.48h4.94a.48.48 0 0 0 0-.96z"/><path id="l" d="M512.48 1105a.47.47 0 0 0-.48.48c0 .27.21.48.48.48h4.94a.48.48 0 0 0 0-.96z"/><path id="m" d="M503.48 1099a.47.47 0 0 0-.48.48c0 .27.21.48.48.48h4.94a.48.48 0 0 0 0-.96z"/><path id="n" d="M503.48 1102a.47.47 0 0 0-.48.48c0 .27.21.48.48.48h4.94a.48.48 0 0 0 0-.96z"/><path id="o" d="M503.48 1105a.47.47 0 0 0-.48.48c0 .27.21.48.48.48h4.94a.48.48 0 0 0 0-.96z"/></defs><g transform="translate(-490 -1093)"><use fill="#435fd1" xlink:href="#a"/></g><g transform="translate(-490 -1093)"><use fill="#435fd1" xlink:href="#b"/></g><g transform="translate(-490 -1093)"><use fill="#435fd1" xlink:href="#c"/></g><g transform="translate(-490 -1093)"><use fill="#435fd1" xlink:href="#d"/></g><g transform="translate(-490 -1093)"><use fill="#435fd1" xlink:href="#e"/></g><g transform="translate(-490 -1093)"><use fill="#435fd1" xlink:href="#f"/></g><g transform="translate(-490 -1093)"><use fill="#435fd1" xlink:href="#g"/></g><g transform="translate(-490 -1093)"><use fill="#435fd1" xlink:href="#h"/></g><g transform="translate(-490 -1093)"><use fill="#435fd1" xlink:href="#i"/></g><g transform="translate(-490 -1093)"><use fill="#435fd1" xlink:href="#j"/></g><g transform="translate(-490 -1093)"><use fill="#435fd1" xlink:href="#k"/></g><g transform="translate(-490 -1093)"><use fill="#435fd1" xlink:href="#l"/></g><g transform="translate(-490 -1093)"><use fill="#435fd1" xlink:href="#m"/></g><g transform="translate(-490 -1093)"><use fill="#435fd1" xlink:href="#n"/></g><g transform="translate(-490 -1093)"><use fill="#435fd1" xlink:href="#o"/></g></svg>