<svg xmlns="http://www.w3.org/2000/svg" xmlns:xlink="http://www.w3.org/1999/xlink" width="27" height="31" viewBox="0 0 27 31"><defs><path id="a" d="M282.26 1239.7a.48.48 0 0 0 0-.96h-13.3v-28.78h23.71v18.79c0 .27.21.48.48.48.26 0 .48-.21.48-.48v-19.27a.48.48 0 0 0-.48-.48h-24.67a.47.47 0 0 0-.48.48v29.74c0 .27.21.48.48.48h13.78z"/><path id="b" d="M272.48 1215a.47.47 0 0 0-.48.48c0 .27.21.48.48.48h12.02a.48.48 0 0 0 0-.96z"/><path id="c" d="M272.48 1219a.47.47 0 0 0-.48.48c0 .27.21.48.48.48h14a.48.48 0 0 0 0-.96z"/><path id="d" d="M272.48 1224a.47.47 0 0 0-.48.48c0 .27.21.48.48.48H288.2c.27 0 .48-.21.48-.48a.47.47 0 0 0-.48-.48h-5.95z"/><path id="e" d="M293.53 1234.66a.49.49 0 0 0-.48-.48.48.48 0 0 0-.48.48v4.48h-7.61v-7.18h5.14c.27 0 .48-.21.48-.48a.47.47 0 0 0-.48-.48h-5.62a.47.47 0 0 0-.48.48v8.14c0 .26.21.48.48.48h8.57c.26 0 .48-.22.48-.48z"/><path id="f" d="M286.82 1234.86a.48.48 0 0 0-.68 0 .48.48 0 0 0 0 .68l2.12 2.11a.48.48 0 0 0 .72-.05l4.16-4.81c.18-.2.15-.5-.05-.67a.47.47 0 0 0-.67.05l-3.85 4.44-1.75-1.75z"/></defs><g transform="translate(-267 -1209)"><use fill="#435fd1" xlink:href="#a"/></g><g transform="translate(-267 -1209)"><use fill="#435fd1" xlink:href="#b"/></g><g transform="translate(-267 -1209)"><use fill="#435fd1" xlink:href="#c"/></g><g transform="translate(-267 -1209)"><use fill="#435fd1" xlink:href="#d"/></g><g transform="translate(-267 -1209)"><use fill="#435fd1" xlink:href="#e"/></g><g transform="translate(-267 -1209)"><use fill="#435fd1" xlink:href="#f"/></g></svg>