<?xml version="1.0" encoding="UTF-8"?>
<svg width="26px" height="26px" viewBox="0 0 26 26" version="1.1" xmlns="http://www.w3.org/2000/svg" xmlns:xlink="http://www.w3.org/1999/xlink">
    <!-- Generator: Sketch 46.2 (44496) - http://www.bohemiancoding.com/sketch -->
    <title>Shape</title>
    <desc>Created with Sketch.</desc>
    <defs></defs>
    <g id="Page-1" stroke="none" stroke-width="1" fill="none" fill-rule="evenodd">
        <g id="Desktop-HD" transform="translate(-564.000000, -1638.000000)" fill-rule="nonzero" fill="#3A7ECC">
            <g id="services" transform="translate(0.000000, 423.000000)">
                <g id="content-copy" transform="translate(169.000000, 457.000000)">
                    <g id="text">
                        <g id="4" transform="translate(78.000000, 740.000000)">
                            <g id="ico" transform="translate(300.000000, 2.000000)">
                                <path d="M34.2849963,18.9656373 C32.3724615,17.0527803 29.8299342,16 27.1253168,16 C24.4206994,16 21.8781721,17.0531026 19.9659596,18.9656373 C18.0531026,20.8784944 17,23.4210216 17,26.1256391 C17,28.8302565 18.0534248,31.3727838 19.9656373,33.2856408 C21.8781721,35.1978533 24.4203772,36.2512781 27.1253168,36.2512781 C29.8299342,36.2512781 32.3724615,35.1981756 34.2853186,33.2856408 C38.2331642,29.337473 38.2328419,22.9138052 34.2849963,18.9656373 Z M32.4626906,31.4630129 C31.0367485,32.8886327 29.1412928,33.6733037 27.1253168,33.6733037 C25.1093408,33.6733037 23.2142074,32.8883105 21.7885875,31.4630129 C20.3629676,30.0367485 19.5779744,28.1416151 19.5779744,26.1256391 C19.5779744,24.1096631 20.3632899,22.2138851 21.7885875,20.7882653 C23.2138851,19.3626454 25.1093408,18.5779744 27.1253168,18.5779744 C29.1412928,18.5779744 31.0367485,19.3629676 32.4623684,20.7882653 C35.404804,23.7313453 35.404804,28.5199328 32.4626906,31.4630129 Z M42.6224879,39.7998599 L37.2164755,34.3938476 C36.7128037,33.8901758 35.8965526,33.8901758 35.3938476,34.3938476 C34.8901758,34.8968748 34.8901758,35.713126 35.3938476,36.2164755 L40.7998599,41.6224879 C41.0515347,41.8741626 41.3815154,42.0001611 41.7111739,42.0001611 C42.0408324,42.0001611 42.3711354,41.8741626 42.6224879,41.6224879 C43.1258374,41.1188161 43.1258374,40.302565 42.6224879,39.7998599 Z" id="Shape"></path>
                            </g>
                        </g>
                    </g>
                </g>
            </g>
        </g>
    </g>
</svg>