<?xml version="1.0" encoding="UTF-8"?>
<svg width="31px" height="31px" viewBox="0 0 31 31" version="1.1" xmlns="http://www.w3.org/2000/svg" xmlns:xlink="http://www.w3.org/1999/xlink">
    <!-- Generator: Sketch 46.2 (44496) - http://www.bohemiancoding.com/sketch -->
    <title>Group</title>
    <desc>Created with Sketch.</desc>
    <defs></defs>
    <g id="Page-1" stroke="none" stroke-width="1" fill="none" fill-rule="evenodd">
        <g id="Desktop-HD" transform="translate(-422.000000, -1346.000000)" fill-rule="nonzero" fill="#3A7ECC">
            <g id="services" transform="translate(0.000000, 423.000000)">
                <g id="content-copy" transform="translate(169.000000, 457.000000)">
                    <g id="text">
                        <g id="2" transform="translate(99.000000, 449.000000)">
                            <g id="ico" transform="translate(140.000000, 2.000000)">
                                <g id="noun_1239629_cc" transform="translate(14.000000, 15.000000)">
                                    <g id="Group">
                                        <path d="M26.5714286,0.738095238 L4.42857143,0.738095238 C2.39438095,0.738095238 0.738095238,2.39290476 0.738095238,4.42857143 L0.738095238,26.5714286 C0.738095238,28.6070952 2.39438095,30.2619048 4.42857143,30.2619048 L26.5714286,30.2619048 C28.605619,30.2619048 30.2619048,28.6070952 30.2619048,26.5714286 L30.2619048,4.42857143 C30.2619048,2.39290476 28.605619,0.738095238 26.5714286,0.738095238 Z M4.42857143,2.21428571 L26.5714286,2.21428571 C27.7922381,2.21428571 28.7857143,3.2077619 28.7857143,4.42857143 L28.7857143,9.5952381 L2.21428571,9.5952381 L2.21428571,4.42857143 C2.21428571,3.2077619 3.2077619,2.21428571 4.42857143,2.21428571 Z M26.5714286,28.7857143 L4.42857143,28.7857143 C3.2077619,28.7857143 2.21428571,27.7922381 2.21428571,26.5714286 L2.21428571,11.0714286 L28.7857143,11.0714286 L28.7857143,26.5714286 C28.7857143,27.7922381 27.7922381,28.7857143 26.5714286,28.7857143 Z" id="Shape"></path>
                                        <path d="M5.9047619,6.64285714 L8.85714286,6.64285714 C9.26457143,6.64285714 9.5952381,6.31219048 9.5952381,5.9047619 C9.5952381,5.49733333 9.26457143,5.16666667 8.85714286,5.16666667 L5.9047619,5.16666667 C5.49733333,5.16666667 5.16666667,5.49733333 5.16666667,5.9047619 C5.16666667,6.31219048 5.49733333,6.64285714 5.9047619,6.64285714 Z" id="Shape"></path>
                                        <path d="M11.8095238,6.64285714 L14.7619048,6.64285714 C15.1693333,6.64285714 15.5,6.31219048 15.5,5.9047619 C15.5,5.49733333 15.1693333,5.16666667 14.7619048,5.16666667 L11.8095238,5.16666667 C11.4020952,5.16666667 11.0714286,5.49733333 11.0714286,5.9047619 C11.0714286,6.31219048 11.4020952,6.64285714 11.8095238,6.64285714 Z" id="Shape"></path>
                                        <path d="M12.3320952,15.7155238 C12.0442381,15.4276667 11.5762857,15.4276667 11.2884286,15.7155238 L6.85985714,20.1440952 C6.572,20.4319524 6.572,20.8999048 6.85985714,21.1877619 L11.2884286,25.6163333 C11.431619,25.761 11.6205714,25.8333333 11.8095238,25.8333333 C11.9984762,25.8333333 12.1874286,25.761 12.3320952,25.6178095 C12.6199524,25.3299524 12.6199524,24.862 12.3320952,24.5741429 L8.42461905,20.6666667 L12.330619,16.7606667 C12.6199524,16.4713333 12.6199524,16.0048571 12.3320952,15.7155238 Z" id="Shape"></path>
                                        <path d="M19.7130476,15.7155238 C19.4251905,15.4276667 18.9572381,15.4276667 18.669381,15.7155238 C18.3815238,16.003381 18.3815238,16.4713333 18.669381,16.7591905 L22.575381,20.6666667 L18.669381,24.5726667 C18.3815238,24.8605238 18.3815238,25.3284762 18.669381,25.6163333 C18.8125714,25.761 19.0015238,25.8333333 19.1904762,25.8333333 C19.3794286,25.8333333 19.568381,25.761 19.7130476,25.6178095 L24.141619,21.1892381 C24.4294762,20.901381 24.4294762,20.4334286 24.141619,20.1455714 L19.7130476,15.7155238 Z" id="Shape"></path>
                                    </g>
                                </g>
                            </g>
                        </g>
                    </g>
                </g>
            </g>
        </g>
    </g>
</svg>