<?xml version="1.0" encoding="UTF-8"?>
<svg width="38px" height="35px" viewBox="0 0 38 35" version="1.1" xmlns="http://www.w3.org/2000/svg" xmlns:xlink="http://www.w3.org/1999/xlink">
    <!-- Generator: Sketch 46.2 (44496) - http://www.bohemiancoding.com/sketch -->
    <title>Shape</title>
    <desc>Created with Sketch.</desc>
    <defs></defs>
    <g id="Page-1" stroke="none" stroke-width="1" fill="none" fill-rule="evenodd">
        <g id="Desktop-HD" transform="translate(-925.000000, -1210.000000)" fill-rule="nonzero" fill="#397DCB">
            <g id="services" transform="translate(0.000000, 423.000000)">
                <g id="content-copy" transform="translate(169.000000, 457.000000)">
                    <g id="text">
                        <g id="8" transform="translate(744.000000, 313.000000)">
                            <g id="ico" transform="translate(0.000000, 2.000000)">
                                <path d="M49.411708,26.7393491 C48.9814411,26.3090822 48.3360407,26.3090822 47.9488005,26.7393491 L41.4087434,33.2794062 L31.0393109,22.9099736 L32.3301116,21.6191729 C32.7603785,21.188906 32.7603785,20.5435056 32.3301116,20.1562654 C31.8998447,19.7259985 31.2544443,19.7259985 30.8672041,20.1562654 L25.6179478,25.4055217 C25.2737342,25.7497352 24.6713606,25.7497352 24.2841203,25.4055217 L23.8538534,24.9752548 C23.6817467,24.803148 23.5956933,24.5880146 23.5956933,24.3298544 C23.5956933,24.0716943 23.6817467,23.8565608 23.8538534,23.6844541 L29.6624567,17.8758508 C29.7485101,17.7897974 31.3404977,16.3268899 32.5022184,17.4886105 L35.1268465,20.1132387 C35.5571134,20.5435056 36.2025138,20.5435056 36.589754,20.1132387 L39.386489,17.3165038 C39.8167559,16.8862369 39.8167559,16.2408365 39.386489,15.8535963 C38.956222,15.466356 38.3108217,15.4233294 37.9235815,15.8535963 L35.8583003,17.9188774 L34.0081526,16.0687297 C31.9428714,14.0034485 29.3182432,15.3803027 28.2425759,16.4559699 L26.3063748,18.392171 L24.0259602,16.1117564 C23.5956933,15.6814895 22.9502929,15.6814895 22.5630527,16.1117564 C22.1327858,16.5420233 22.1327858,17.1874237 22.5630527,17.5746639 L24.8434673,19.8550786 L22.4339726,22.2645733 C21.8746256,22.8239202 21.5304121,23.5984007 21.5304121,24.4159078 C21.5304121,25.233415 21.8315989,26.0078954 22.4339726,26.5672424 L22.8642395,26.9975093 C23.4666132,27.599883 24.2410936,27.9010698 25.0155741,27.9010698 C25.7900545,27.9010698 26.564535,27.599883 27.1669087,26.9975093 L29.61943,24.5449879 L41.5808502,36.506408 C41.8390104,36.7645682 41.9680904,37.1087817 41.9680904,37.4529953 C41.9680904,37.7972088 41.8390104,38.1414223 41.5808502,38.3995825 C41.0645299,38.9159028 40.1609694,38.9159028 39.6446491,38.3995825 L37.708448,36.4633814 L35.6431668,34.3981002 C35.2128999,33.9678333 34.5674995,33.9678333 34.1802593,34.3981002 C33.7499924,34.8283671 33.7499924,35.4737675 34.1802593,35.8610077 L34.223286,35.9040344 C34.223286,35.9040344 34.223286,35.9040344 34.223286,35.9040344 L35.5571134,37.2378618 L38.3538484,40.0345967 C38.6120085,40.2927569 38.7410886,40.6369704 38.7410886,40.9811839 C38.7410886,41.3253975 38.6120085,41.669611 38.3538484,41.9277711 C37.8375281,42.4440914 36.9339676,42.4440914 36.4176473,41.9277711 L36.2455405,41.7556644 C36.2025138,41.7126377 36.1594871,41.6265843 36.1164604,41.5835576 L32.1580048,37.625102 C31.7277379,37.1948351 31.0823376,37.1948351 30.6950973,37.625102 C30.6950973,37.625102 30.6950973,37.625102 30.6950973,37.625102 C30.6950973,37.625102 30.6950973,37.625102 30.6950973,37.625102 C30.2648304,38.0553689 30.2648304,38.7007693 30.6950973,39.0880095 L34.782633,43.1755452 C34.9547398,43.3906786 35.0407931,43.6918655 35.0407931,43.9930523 C35.0407931,44.3372658 34.9117131,44.6814794 34.6535529,44.9396395 C34.1372326,45.4559598 33.2336721,45.4559598 32.7173518,44.9396395 L28.931003,41.1532907 C29.1031098,40.8090772 29.1461364,40.3788103 29.1461364,39.99157 C29.1461364,39.1740629 28.8449496,38.3995825 28.2425759,37.8402355 C27.6832289,37.2808885 26.8657218,36.9797017 26.0482147,36.9797017 L26.6075617,36.4203547 C27.1669087,35.8610077 27.5111222,35.0865272 27.5111222,34.2690201 C27.5111222,33.451513 27.2099353,32.6770325 26.6075617,32.1176855 C25.4888677,30.9559649 23.4666132,30.9559649 22.3048925,32.1176855 L21.1431719,33.2794062 L13.7856077,25.921842 C13.3553408,25.4915751 12.7099404,25.4915751 12.3227002,25.921842 C11.8924333,26.3521089 11.8924333,26.9975093 12.3227002,27.3847495 L19.6802644,34.7423137 L17.6149832,36.8075949 C16.4532625,37.9693155 16.4532625,39.9055167 17.6149832,41.110264 C18.1743302,41.669611 18.9488106,42.0138245 19.7663178,42.0138245 C19.9384245,42.0138245 20.153558,42.0138245 20.3256647,41.9707978 C19.9814512,43.0034384 20.2396114,44.2081858 21.0571185,45.0256929 C21.6164655,45.5850399 22.3909459,45.9292534 23.2084531,45.9292534 C23.5096399,45.9292534 23.7678,45.8862267 24.0259602,45.8001733 C23.9829335,46.0153068 23.9399068,46.2304403 23.9399068,46.4455737 C23.9399068,47.2630808 24.2410936,48.0375613 24.8434673,48.5969083 C25.4028143,49.1562553 26.1772948,49.5004688 26.9948019,49.5004688 C27.812309,49.5004688 28.5867895,49.199282 29.1461364,48.5969083 L31.297471,46.4455737 C31.9428714,47.0909741 32.8034052,47.4351876 33.7069657,47.4351876 C34.6535529,47.4351876 35.5140867,47.0909741 36.1594871,46.4455737 C36.7188341,45.8862267 37.0630476,45.154773 37.149101,44.3372658 C37.2351544,44.3372658 37.3212078,44.3802925 37.4502878,44.3802925 C38.3968751,44.3802925 39.2574089,44.036079 39.9028092,43.3906786 C40.5482096,42.7452783 40.8924231,41.8847444 40.8924231,40.9381572 C40.8924231,40.8951306 40.8924231,40.8521039 40.8924231,40.8090772 C41.752957,40.7660505 42.5274374,40.4218369 43.1728378,39.8194633 C43.8182381,39.1740629 44.1624517,38.3135291 44.1624517,37.3669419 C44.1624517,36.4203547 43.8182381,35.5598208 43.1728378,34.9144205 L43.0437577,34.7853404 L49.5838148,28.2452833 C49.8419749,27.8150164 49.8419749,27.1265894 49.411708,26.7393491 Z M19.034864,39.6903832 C18.6906505,39.3461697 18.6906505,38.743796 19.034864,38.3565558 L23.7678,33.6236197 C23.9399068,33.451513 24.198067,33.3654596 24.4132004,33.3654596 C24.6713606,33.3654596 24.886494,33.451513 25.0586008,33.6236197 C25.2307075,33.7957265 25.3167609,34.01086 25.3167609,34.2690201 C25.3167609,34.5271803 25.2307075,34.7423137 25.0586008,34.9144205 L20.3256647,39.6473565 C19.9814512,40.0345967 19.3790775,40.0345967 19.034864,39.6903832 Z M22.4769993,43.5627854 C22.1327858,43.2185719 22.1327858,42.6161982 22.4769993,42.228958 L25.4028143,39.303143 C25.5749211,39.1310362 25.8330812,39.0449828 26.0482147,39.0449828 C26.3063748,39.0449828 26.5215083,39.1310362 26.693615,39.303143 C26.8657218,39.4752497 26.9517752,39.6903832 26.9517752,39.9485433 C26.9517752,40.2067035 26.8657218,40.4218369 26.693615,40.5939437 L23.7678,43.5197587 C23.4235865,43.9069989 22.8212128,43.9069989 22.4769993,43.5627854 Z M27.5541489,47.1340008 C27.2099353,47.4782143 26.564535,47.4782143 26.2203214,47.1340008 C26.0482147,46.961894 25.9621613,46.7467606 25.9621613,46.4886004 C25.9621613,46.2304403 26.0482147,46.0153068 26.2203214,45.8432 L28.371656,43.6918655 L29.7054834,45.0256929 L27.5541489,47.1340008 Z" id="Shape"></path>
                            </g>
                        </g>
                    </g>
                </g>
            </g>
        </g>
    </g>
</svg>