<?xml version="1.0" encoding="UTF-8"?>
<svg width="30px" height="32px" viewBox="0 0 30 32" version="1.1" xmlns="http://www.w3.org/2000/svg" xmlns:xlink="http://www.w3.org/1999/xlink">
    <!-- Generator: Sketch 46.2 (44496) - http://www.bohemiancoding.com/sketch -->
    <title>Shape</title>
    <desc>Created with Sketch.</desc>
    <defs></defs>
    <g id="Page-1" stroke="none" stroke-width="1" fill="none" fill-rule="evenodd">
        <g id="Desktop-HD" transform="translate(-851.000000, -1635.000000)" fill-rule="nonzero" fill="#387DCB">
            <g id="services" transform="translate(0.000000, 423.000000)">
                <g id="content-copy" transform="translate(169.000000, 457.000000)">
                    <g id="text">
                        <g id="5" transform="translate(667.000000, 740.000000)">
                            <g id="ico" transform="translate(0.000000, 2.000000)">
                                <path d="M15.0811774,30.2773797 C15.0797656,30.2805562 15.0794127,30.2840857 15.0780009,30.2876151 C15.0504712,30.3490276 15.0292945,30.4139696 15.0165884,30.4817351 C15.0137649,30.4958529 15.0141178,30.5103237 15.0123531,30.5244415 C15.006706,30.5650302 15,30.6052659 15,30.6472664 C15,30.6645608 15.0024706,30.6815021 15.0024706,30.6987965 C15.0028236,30.7040906 15.0028236,30.7090319 15.0031765,30.7143261 C15.0398828,34.0888363 17.7935623,36.8238097 21.1765433,36.8238097 C24.5595242,36.8238097 27.3132037,34.0888363 27.3495571,30.7139731 C27.34991,30.7086789 27.34991,30.7037377 27.3502629,30.6984435 C27.3502629,30.6811492 27.3527336,30.6642078 27.3527336,30.6469135 C27.3527336,30.604913 27.3460276,30.5646772 27.3403805,30.5240885 C27.3382628,30.5099707 27.3386157,30.4954999 27.3361451,30.4813821 C27.3230862,30.4132637 27.3022624,30.3486747 27.2747326,30.2869093 C27.2733209,30.2837327 27.2729679,30.2802033 27.2715561,30.2766738 L22.0589066,18.9827763 L22.0589066,18.2941799 L29.1178132,18.2941799 L29.1178132,39.4708997 L25.5883599,39.4708997 C25.3543571,39.4708997 25.1298839,39.5637243 24.9643525,39.7292556 L21.4348992,43.2587089 C21.1825433,43.5110648 21.107013,43.8904811 21.2436029,44.220132 C21.3801927,44.5501359 21.7020788,44.7650796 22.0589066,44.7650796 L37.9414464,44.7650796 C38.2982741,44.7650796 38.6201602,44.5501359 38.7567501,44.2204849 C38.8933399,43.890834 38.8178096,43.5114178 38.5654537,43.2590619 L35.0360004,39.7296086 C34.8704691,39.5637243 34.6459958,39.4708997 34.4119931,39.4708997 L30.8825398,39.4708997 L30.8825398,18.2941799 L37.9414464,18.2941799 L37.9414464,18.9827763 L32.7284439,30.2773797 C32.7270321,30.2805562 32.7266791,30.2840857 32.7252674,30.2876151 C32.6977376,30.3490276 32.6765609,30.4139696 32.6638549,30.4817351 C32.6610313,30.4958529 32.6613843,30.5103237 32.6596195,30.5244415 C32.6539724,30.5650302 32.6472664,30.6052659 32.6472664,30.6472664 C32.6472664,30.6645608 32.6497371,30.6815021 32.6497371,30.6987965 C32.65009,30.7040906 32.65009,30.7090319 32.6504429,30.7143261 C32.6871493,34.0888363 35.4408287,36.8238097 38.8238097,36.8238097 C42.2067907,36.8238097 44.9604701,34.0888363 44.9968235,30.7139731 C44.9971764,30.7086789 44.9971764,30.7037377 44.9975294,30.6984435 C44.9975294,30.6811492 45,30.6642078 45,30.6469135 C45,30.604913 44.993294,30.5646772 44.9876469,30.5240885 C44.9855292,30.5099707 44.9858822,30.4954999 44.9834116,30.4813821 C44.9703526,30.4132637 44.9495288,30.3486747 44.9219991,30.2869093 C44.9205873,30.2837327 44.9202344,30.2802033 44.9188226,30.2766738 L39.706173,18.9827763 L39.706173,18.2941799 L41.4708997,18.2941799 C41.9583172,18.2941799 42.353263,17.8992341 42.353263,17.4118166 C42.353263,16.9243991 41.9583172,16.5294533 41.4708997,16.5294533 L30.8825398,16.5294533 L30.8825398,13.8823633 C30.8825398,13.3949458 30.487594,13 30.0001765,13 C29.512759,13 29.1178132,13.3949458 29.1178132,13.8823633 L29.1178132,16.5294533 L18.5294533,16.5294533 C18.0420358,16.5294533 17.64709,16.9243991 17.64709,17.4118166 C17.64709,17.8992341 18.0420358,18.2941799 18.5294533,18.2941799 L20.2941799,18.2941799 L20.2941799,18.9827763 L15.0811774,30.2773797 Z M35.8114213,43.0003529 L24.1889316,43.0003529 L25.9536583,41.2356263 L34.0466947,41.2356263 L35.8114213,43.0003529 Z M38.8238097,35.059083 C36.6930787,35.059083 34.9107048,33.5410652 34.5009353,31.5296298 L43.1466841,31.5296298 C42.7369146,33.5410652 40.9545406,35.059083 38.8238097,35.059083 Z M34.9085872,29.7649031 L38.8238097,21.2822151 L42.7390322,29.7649031 L34.9085872,29.7649031 Z M21.1765433,35.059083 C19.0458123,35.059083 17.2634384,33.5410652 16.8536689,31.5296298 L25.4994176,31.5296298 C25.0896481,33.5410652 23.3072742,35.059083 21.1765433,35.059083 Z M17.2613207,29.7649031 L21.1765433,21.2822151 L25.0917658,29.7649031 L17.2613207,29.7649031 Z" id="Shape"></path>
                            </g>
                        </g>
                    </g>
                </g>
            </g>
        </g>
    </g>
</svg>