<?xml version="1.0" encoding="UTF-8"?>
<svg width="34px" height="32px" viewBox="0 0 34 32" version="1.1" xmlns="http://www.w3.org/2000/svg" xmlns:xlink="http://www.w3.org/1999/xlink">
    <!-- Generator: Sketch 46.2 (44496) - http://www.bohemiancoding.com/sketch -->
    <title>Group</title>
    <desc>Created with Sketch.</desc>
    <defs></defs>
    <g id="Page-1" stroke="none" stroke-width="1" fill="none" fill-rule="evenodd">
        <g id="Desktop-HD" transform="translate(-434.000000, -1491.000000)" fill-rule="nonzero" fill="#387DCB">
            <g id="services" transform="translate(0.000000, 423.000000)">
                <g id="content-copy" transform="translate(169.000000, 457.000000)">
                    <g id="text">
                        <g id="3" transform="translate(0.000000, 595.000000)">
                            <g id="ico" transform="translate(250.000000, 2.000000)">
                                <g id="Group" transform="translate(15.000000, 14.103896)">
                                    <path d="M31.7739686,29.2941186 C32.0453668,29.2941186 32.2653971,29.0740882 32.2653971,28.80269 C32.2653971,28.5312918 32.2713982,28 32,28 L4.54561768,28 L4.54561768,1.3048809 C4.54561768,1.03348272 3.96888533,0.23478 3.69748714,0.23478 C3.42608896,0.23478 3.20605857,0.454810386 3.20605857,0.726208571 L3.20605857,28.80269 C3.20605857,29.0740882 3.42608896,29.2941186 3.69748714,29.2941186 L31.7739686,29.2941186 Z" id="Shape"></path>
                                    <path d="M8.32723571,5.01361571 L12.555696,5.01361571 C12.8270942,5.01361571 13.0471246,5.2336461 13.0471246,5.50504429 L13.0471246,28.8027514 C13.0471246,29.0741496 12.8270942,29.29418 12.555696,29.29418 L8.32723571,29.29418 C8.05583753,29.29418 7.83580714,29.0741496 7.83580714,28.8027514 L7.83580714,5.50504429 C7.83580714,5.2336461 8.05583753,5.01361571 8.32723571,5.01361571 Z M9.5,6.5 L9.5,28 L11.5,28 L11.5,6.5 L9.5,6.5 Z" id="Shape"></path>
                                    <path d="M15.0430371,16.4048071 L19.2714974,16.4048071 C19.5428956,16.4048071 19.762926,16.6248375 19.762926,16.8962357 L19.762926,28.80269 C19.762926,29.0740882 19.5428956,29.2941186 19.2714974,29.2941186 L15.0430371,29.2941186 C14.771639,29.2941186 14.5516086,29.0740882 14.5516086,28.80269 L14.5516086,16.8962357 C14.5516086,16.6248375 14.771639,16.4048071 15.0430371,16.4048071 Z M18.5,18 L16,18 L16,28.3112614 L18.5,28.3112614 L18.5,18 Z" id="Shape"></path>
                                    <path d="M21.7588386,11.14732 L25.9872743,11.14732 C26.2586725,11.14732 26.4787029,11.3673504 26.4787029,11.6387486 L26.4787029,28.80269 C26.4787029,29.0740882 26.2586725,29.2941186 25.9872743,29.2941186 L21.7588386,29.2941186 C21.4874404,29.2941186 21.26741,29.0740882 21.26741,28.80269 L21.26741,11.6387486 C21.26741,11.3673504 21.4874404,11.14732 21.7588386,11.14732 Z M25,12.5 L22.5,12.5 L22.5,28.3112614 L25,28.3112614 L25,12.5 Z" id="Shape"></path>
                                    <path d="M4.04498857,0.378707143 C3.85310906,0.186827629 3.54195123,0.186827629 3.35007171,0.378707143 C3.1581922,0.570586657 3.1581922,0.881744486 3.35007171,1.073624 L3.69753014,0.726165571 L4.04498857,1.073624 C4.23686809,0.881744486 4.23686809,0.570586657 4.04498857,0.378707143 L4.04498857,0.378707143 Z M3.69753014,0.726165571 L4.04498857,0.378707143 L6.43707243,2.77077257 C6.62895194,2.96265209 6.62895194,3.27380991 6.43707243,3.46568943 C6.24519291,3.65756894 5.93403509,3.65756894 5.74215557,3.46568943 L3.69753014,1.42108243 L1.65290471,3.46568943 C1.4610252,3.65756894 1.14986737,3.65756894 0.957987857,3.46568943 C0.766108343,3.27380991 0.766108343,2.96265209 0.957987857,2.77077257 L3.35007171,0.378707143 L3.69753014,0.726165571 L3.69753014,0.726165571 Z" id="Shape"></path>
                                    <path d="M33.2308919,28.5359935 C33.0390124,28.344114 32.7278546,28.344114 32.5359751,28.5359935 L32.8834335,28.8834519 L32.5359751,29.2309104 C32.7278546,29.4227899 33.0390124,29.4227899 33.2308919,29.2309104 C33.4227714,29.0390308 33.4227714,28.727873 33.2308919,28.5359935 Z M33.2308919,29.2309104 L30.8388265,31.6229942 C30.646947,31.8148737 30.3357892,31.8148737 30.1439096,31.6229942 C29.9520301,31.4311147 29.9520301,31.1199569 30.1439096,30.9280774 L32.1885166,28.8834519 L30.1439096,26.8388265 C29.9520301,26.646947 29.9520301,26.3357892 30.1439096,26.1439096 C30.3357892,25.9520301 30.646947,25.9520301 30.8388265,26.1439096 L33.2308919,28.5359935 L32.8834335,28.8834519 L33.2308919,29.2309104 Z" id="Shape"></path>
                                </g>
                            </g>
                        </g>
                    </g>
                </g>
            </g>
        </g>
    </g>
</svg>