<?xml version="1.0" encoding="UTF-8"?>
<svg width="38px" height="37px" viewBox="0 0 38 37" version="1.1" xmlns="http://www.w3.org/2000/svg" xmlns:xlink="http://www.w3.org/1999/xlink">
    <!-- Generator: Sketch 46.2 (44496) - http://www.bohemiancoding.com/sketch -->
    <title>Shape</title>
    <desc>Created with Sketch.</desc>
    <defs></defs>
    <g id="Page-1" stroke="none" stroke-width="1" fill="none" fill-rule="evenodd">
        <g id="Desktop-HD" transform="translate(-981.000000, -1338.000000)" fill-rule="nonzero" fill="#3A7ECC">
            <g id="services" transform="translate(0.000000, 423.000000)">
                <g id="content-copy" transform="translate(169.000000, 457.000000)">
                    <g id="text">
                        <g id="7" transform="translate(801.000000, 444.000000)">
                            <g id="ico" transform="translate(0.000000, 2.000000)">
                                <path d="M45.9835253,22.7304523 C44.3589927,21.910941 42.4148998,22.0543181 40.9281678,23.1032855 C39.4414358,24.152253 38.654527,25.9357407 38.8819152,27.7410106 L36.6793406,28.517687 C35.7019336,26.6874964 33.9012769,25.4415725 31.8440323,25.1720042 L31.69268,21.7108156 C31.8227899,21.678952 31.9555551,21.6417777 32.0909756,21.5992929 C34.3216251,20.8652171 35.7232281,18.6577995 35.4387789,16.3267583 C35.1543298,13.9957171 33.2630322,12.1901211 30.9213139,12.0139961 C28.5795957,11.8378711 26.4394985,13.3402584 25.8095779,15.6025281 C25.1796572,17.8647979 26.2353119,20.2570305 28.3310654,21.316503 C28.6438466,21.4728238 28.972273,21.5956499 29.3108725,21.6829349 L29.4701907,25.3074247 C29.3228213,25.3432713 29.175452,25.3791179 29.0280826,25.4308963 C27.6039621,25.8972726 26.3897445,26.8505956 25.5987577,28.1233744 L20.8709892,26.5301921 C21.0090429,24.0390246 19.26745,21.8361235 16.8116528,21.3956302 C14.3558556,20.9551368 11.9572041,22.4154073 11.2208323,24.7992552 C10.4844604,27.1831031 11.6416578,29.7417772 13.9180491,30.7630593 C16.1944403,31.7843415 18.8750256,30.9474535 20.166006,28.8124257 L24.7304733,30.3339148 C24.4425286,31.8657001 24.7259276,33.449901 25.5270645,34.7868594 L23.6311776,36.710627 C21.4559212,35.4619388 18.6909116,36.0325712 17.1877237,38.040403 C15.6845358,40.0482348 15.9157528,42.862029 17.7265415,44.5975424 C19.5373302,46.3330558 22.3584014,46.4446649 24.3006388,44.8576311 C26.2428763,43.2705974 26.6956651,40.4838643 25.3557974,38.3635537 L27.1162638,36.5752065 C28.7918957,37.8912784 31.0143887,38.2828676 33.0389191,37.6187409 L33.0628168,37.6187409 L34.2338058,39.7058097 C32.2278094,41.178704 31.6337935,43.9155425 32.8486915,46.0875143 C34.0635896,48.2594861 36.7065507,49.1857132 39.0114947,48.2472717 C41.3164386,47.3088302 42.5608027,44.7999065 41.9130775,42.3970143 C41.2653524,39.9941221 38.9285894,38.4505292 36.464261,38.7976958 L35.1538686,36.4358031 C36.8023257,35.0517234 37.6498145,32.9352434 37.4122045,30.7959377 L39.7621484,29.9674829 C40.9401993,31.656168 43.0441208,32.4342086 45.0374374,31.918311 C47.0307539,31.4024133 48.4930582,29.7013845 48.703961,27.6532191 C48.9148637,25.6050538 47.8298837,23.6417272 45.9835253,22.7304523 Z M16.7326982,28.7048859 C15.7587448,29.0274632 14.6863938,28.7307008 14.016848,27.9533016 C13.3473021,27.1759024 13.212799,26.0714054 13.6762037,25.1560381 C14.1396084,24.2406708 15.1093968,23.6952214 16.1323026,23.7746258 C17.1552083,23.8540302 18.0292039,24.5426058 18.3457953,25.5185213 C18.7732838,26.8433187 18.0534812,28.2651511 16.7326982,28.7048859 Z M21.9623191,43.4059756 C20.9883658,43.7285529 19.9160147,43.4317905 19.2464689,42.6543913 C18.576923,41.8769921 18.4424199,40.7724951 18.9058246,39.8571278 C19.3692293,38.9417605 20.3390177,38.3963111 21.3619235,38.4757155 C22.3848292,38.55512 23.2588248,39.2436955 23.5754162,40.219611 C24.0029047,41.5444084 23.2831021,42.9662408 21.9623191,43.4059756 L21.9623191,43.4059756 Z M29.3945145,19.1856217 C28.3156759,18.6415208 27.7712946,17.4112112 28.0941933,16.2468765 C28.4170919,15.0825419 29.5173741,14.3083379 30.722352,14.3975955 C31.9273299,14.4868532 32.9015326,15.4147227 33.0493544,16.6139255 C33.1971762,17.8131283 32.4774629,18.9498013 31.330231,19.3290081 C30.6917691,19.5419075 29.9946398,19.4902683 29.3945145,19.1856217 L29.3945145,19.1856217 Z M32.2781745,35.3484561 C30.7310935,35.8582615 29.0292516,35.3857808 27.9664113,34.1513854 C26.903571,32.9169901 26.6891048,31.1638478 27.4230425,29.7096481 C28.1569803,28.2554484 29.6947413,27.386659 31.3190926,27.5084952 C32.9434439,27.6303314 34.3343993,28.7187922 34.843198,30.2662046 C35.5348176,32.3788599 34.3854626,34.6526225 32.2741916,35.3484561 L32.2781745,35.3484561 Z M36.3368064,41.2671284 C37.4844723,40.8889619 38.7394615,41.374059 39.3344149,42.4258086 C39.9293683,43.4775582 39.6986235,44.8031049 38.7832687,45.5919472 C37.8679138,46.3807896 36.5228258,46.4132777 35.5704545,45.6695468 C34.6180832,44.9258158 34.3236126,43.6129548 34.8670958,42.5337083 C35.1698493,41.9334743 35.6984479,41.4779341 36.3368064,41.2671284 Z M46.0273378,28.2707438 C45.4764585,29.3460319 44.2428653,29.8826226 43.0806564,29.5524968 C41.9184475,29.222371 41.1511341,28.1174222 41.2477766,26.9131079 C41.3444191,25.7087936 42.2781162,24.7403456 43.4780968,24.5997782 C44.6780774,24.4592108 45.8103161,25.1856522 46.1826731,26.3350273 C46.3918847,26.9750706 46.3359379,27.6722532 46.0273378,28.2707438 L46.0273378,28.2707438 Z" id="Shape"></path>
                            </g>
                        </g>
                    </g>
                </g>
            </g>
        </g>
    </g>
</svg>