<svg xmlns="http://www.w3.org/2000/svg" xmlns:xlink="http://www.w3.org/1999/xlink" width="16" height="17" viewBox="0 0 16 17"><style>.cls-1{fill:#00ade5;}</style><defs><path id="a" d="M1249.2 71.29c-1.1 0-1.99-.88-1.99-1.96v-4.69a5.12 5.12 0 0 0-4.13-4.97c.07-.15.12-.32.12-.5 0-.65-.54-1.17-1.2-1.17-.66 0-1.2.52-1.2 1.17 0 .18.05.35.12.5a5.12 5.12 0 0 0-4.13 4.97v4.69c0 1.08-.89 1.96-1.99 1.96a.8.8 0 0 0-.8.78c0 .43.36.78.8.78h5.61c0 1.19.71 2.15 1.59 2.15.88 0 1.59-.96 1.59-2.15h5.61a.8.8 0 0 0 .8-.78.8.8 0 0 0-.8-.78z"/></defs><g transform="translate(-1234 -58)"></g></svg>