<svg xmlns="http://www.w3.org/2000/svg" xmlns:xlink="http://www.w3.org/1999/xlink" width="23" height="22" viewBox="0 0 23 22"><defs><path id="a" d="M85.97 190.44l-10.31-10.21a.8.8 0 0 0-1.12 0l-10.31 10.21a.8.8 0 0 0 0 1.12c.31.3.81.3 1.12 0l9.75-9.66 6.36 6.29-.01.06v11.79H68.76v-7.86a.8.8 0 1 0-1.59 0v8.64c0 .44.36.79.8.79h14.27c.44 0 .79-.35.79-.79v-11.07l1.82 1.81c.16.15.36.23.56.23a.8.8 0 0 0 .56-1.35z"/></defs><g transform="translate(-64 -180)"><use fill="#ed672f" xlink:href="#a"/></g></svg>