<svg xmlns="http://www.w3.org/2000/svg" xmlns:xlink="http://www.w3.org/1999/xlink" width="20" height="20" viewBox="0 0 20 20"><defs><path id="a" d="M454 200a10 10 0 1 1-20 0 10 10 0 1 1 20 0zm-8.8 4.36c0-.67-.53-1.2-1.2-1.2-.67 0-1.2.53-1.2 1.2a1.2 1.2 0 1 0 2.4 0zm2.04-7.09c0-.89-.28-1.6-.86-2.09a3.26 3.26 0 0 0-2.22-.74 3.14 3.14 0 0 0-3.36 2.92h1.87a1.37 1.37 0 0 1 1.42-1.32c.35 0 .71.14.95.38.25.25.38.58.38.94 0 .35-.11.68-.35.95l-1.11 1.11c-.27.25-.47.51-.65.8-.13.31-.18.62-.15.94v.93h1.73v-.69a1.5 1.5 0 0 1 .27-.96l.28-.31c.12-.13.25-.26.43-.42.15-.18.29-.29.4-.4.15-.15.31-.33.44-.51.33-.42.51-.98.53-1.53z"/></defs><g transform="translate(-434 -190)"><use fill="#adbabf" xlink:href="#a"/></g></svg>