<svg xmlns="http://www.w3.org/2000/svg" xmlns:xlink="http://www.w3.org/1999/xlink" width="23" height="22" viewBox="0 0 23 22"><defs><path id="a" d="M76.11 279c-2.96 0-5.75-1.14-7.85-3.22a10.88 10.88 0 0 1-2.02-12.81.8.8 0 0 1 1.07-.34c.39.2.54.67.34 1.06a9.34 9.34 0 0 0 1.73 10.98 9.51 9.51 0 0 0 6.73 2.76 9.48 9.48 0 0 0 9.52-9.43 9.48 9.48 0 0 0-9.52-9.43c-2.54 0-4.93.98-6.73 2.76a.8.8 0 0 1-1.12 0 .78.78 0 0 1 0-1.11 11.08 11.08 0 0 1 7.85-3.22 11.05 11.05 0 0 1 11.11 11 11.05 11.05 0 0 1-11.11 11z"/><path id="b" d="M76.17 270.64c-.85 0-1.64-.32-2.24-.92a3.11 3.11 0 0 1 0-4.44c.99-.99 5.77-2.86 6.71-3.23a.8.8 0 1 1 1.03 1.02c-.37.94-2.26 5.67-3.26 6.65-.59.6-1.39.92-2.24.92zm3.32-6.43c-1.94.81-4.01 1.76-4.44 2.18a1.56 1.56 0 0 0 0 2.22c.6.6 1.64.6 2.24 0 .43-.42 1.39-2.47 2.2-4.4z"/></defs><g transform="translate(-64 -257)"><use fill="#585858" xlink:href="#a"/></g><g transform="translate(-64 -257)"><use fill="#585858" xlink:href="#b"/></g></svg>