<svg xmlns="http://www.w3.org/2000/svg" xmlns:xlink="http://www.w3.org/1999/xlink" width="32" height="25" viewBox="0 0 32 25"><defs><path id="a" d="M1290 70V49h21v21zm10.5-2a8.5 8.5 0 1 0 0-17 8.5 8.5 0 0 0 0 17z"/><path id="b" d="M1298.02 66.4l-3.5-5.6h-4.32V60h4.8l4 6.4v7.2h-20v-7.2l4-6.4h7.2v.8h-6.72l-3.5 5.6h5.42V68c0 .88.72 1.6 1.6 1.6h4c.88 0 1.6-.71 1.6-1.6v-1.6z"/><path id="c" d="M1292 59.5a8.5 8.5 0 1 1 17 0 8.5 8.5 0 0 1-17 0z"/><clipPath id="d"><use fill="#fff" xlink:href="#a"/></clipPath></defs><g transform="translate(-1279 -49)"><use fill="#b2b2b2" xlink:href="#b"/></g><g transform="translate(-1279 -49)"><use fill="#f31f1f" xlink:href="#c"/><use fill="#fff" fill-opacity="0" stroke="#ebebeb" stroke-miterlimit="50" stroke-width="4" clip-path="url(&quot;#d&quot;)" xlink:href="#c"/></g><g transform="translate(-1279 -49)"><text fill="#fff" dominant-baseline="text-before-edge" font-family="Helvetica, Arial, sans-serif" font-size="12" font-style="none" font-weight="700" transform="translate(1297 51)"/></g></svg>