<?xml version="1.0" encoding="UTF-8"?>
    <svg width="23px" height="22px" viewBox="0 0 23 22" version="1.1" xmlns="http://www.w3.org/2000/svg" xmlns:xlink="http://www.w3.org/1999/xlink">
        <!-- Generator: Sketch 47 (45396) - http://www.bohemiancoding.com/sketch -->
        <title>Shape</title>
        <desc>Created with Sketch.</desc>
        <defs></defs>
        <g id="Page-1" stroke="none" stroke-width="1"  >
            <g id="Desktop-HD" transform="translate(-64.000000, -257.000000)" >
                <g id="1" transform="translate(33.000000, 35.000000)">
                    <g id="left-menu-small">
                        <g id="icons" transform="translate(31.000000, 145.000000)">
                            <g id="circle" transform="translate(0.000000, 77.000000)">
                                <path d="M11.8965517,22 C8.93034483,22 6.14258621,20.856 4.04562069,18.7777857 C0.617827586,15.3827143 -0.196689655,10.2339286 2.02003448,5.9675 C2.22068966,5.58171429 2.69813793,5.43007143 3.08834483,5.62807143 C3.47855172,5.82607143 3.63162069,6.29985714 3.43096552,6.68642857 C1.53068966,10.3431429 2.22862069,14.7557143 5.16706897,17.6667857 C6.96424138,19.448 9.35386207,20.4285714 11.8965517,20.4285714 C14.4384483,20.4285714 16.8288621,19.448 18.6260345,17.6667857 C20.4232069,15.8855714 21.4137931,13.5182143 21.4137931,11 C21.4137931,8.481 20.424,6.11364286 18.6260345,4.33321429 C16.828069,2.55278571 14.4392414,1.57142857 11.8965517,1.57142857 C9.35386207,1.57142857 6.96424138,2.55278571 5.16706897,4.33321429 C4.85696552,4.64042857 4.35572414,4.64042857 4.04562069,4.33321429 C3.73551724,4.026 3.73551724,3.52942857 4.04562069,3.22221429 C6.14258621,1.14478571 8.93034483,0 11.8965517,0 C14.8627586,0 17.6513103,1.14478571 19.7474828,3.22221429 C21.8452414,5.29964286 23,8.06142857 23,11 C23,13.9377857 21.8452414,16.7003571 19.7474828,18.7777857 C17.6513103,20.856 14.8627586,22 11.8965517,22 Z M11.8965517,14.1428571 C11.0495172,14.1428571 10.2524483,13.816 9.65286207,13.222 C8.41562069,11.9962857 8.41562069,10.0029286 9.65286207,8.778 C10.6497931,7.79035714 15.4203103,5.91878571 16.3664828,5.55342857 C16.6607241,5.44028571 16.9930345,5.50942857 17.2151034,5.73021429 C17.4371724,5.951 17.5077586,6.28021429 17.3935517,6.57092857 C17.0247586,7.50828571 15.1355862,12.2351429 14.1386552,13.222 C13.5406552,13.816 12.7435862,14.1428571 11.8965517,14.1428571 Z M15.218069,7.71021429 C13.2725862,8.51792857 11.2017931,9.46628571 10.7751034,9.889 C10.1564828,10.5018571 10.1564828,11.4981429 10.7751034,12.111 C11.3746897,12.705 12.4192069,12.705 13.0187931,12.111 C13.4446897,11.6875 14.4027586,9.63757143 15.218069,7.71021429 Z" id="Shape"></path>
                            </g>
                        </g>
                    </g>
                </g>
            </g>
        </g>
    </svg>