<svg width="15px" height="15px" id="Layer_1" data-name="Layer 1" xmlns="http://www.w3.org/2000/svg" viewBox="0 0 15 15">
<defs>
	<style>.cls-1{fill:#fff;}</style>
</defs>
<g id="calendar">
	<path id="Shape" class="cls-1" d="M13.75,1.41h-2V.47a.47.47,0,0,0-.94,0v.94H8V.47A.47.47,0,0,0,7,.47v.94H4.22V.47a.47.47,0,0,0-.94,0v.94h-2A1.25,1.25,0,0,0,0,2.66V13.75A1.25,1.25,0,0,0,1.25,15h12.5A1.25,1.25,0,0,0,15,13.75V2.66A1.25,1.25,0,0,0,13.75,1.41Zm.31,12.34a.31.31,0,0,1-.31.31H1.25a.31.31,0,0,1-.31-.31V2.66a.31.31,0,0,1,.31-.31h2v.94a.47.47,0,0,0,.94,0V2.34H7v.94a.47.47,0,0,0,.94,0V2.34h2.81v.94a.47.47,0,0,0,.94,0V2.34h2a.31.31,0,0,1,.31.31Z"/><path class="cls-1" d="M3.28,5.63H5.16V7H3.28ZM3.28,8H5.16V9.38H3.28Zm0,2.34H5.16v1.41H3.28Zm3.28,0H8.44v1.41H6.56ZM6.56,8H8.44V9.38H6.56Zm0-2.34H8.44V7H6.56Zm3.28,4.69h1.88v1.41H9.84ZM9.84,8h1.88V9.38H9.84Zm0-2.34h1.88V7H9.84Z"/>
</g>
</svg>