<svg width="12px" height="18px" id="Layer_1" data-name="Layer 1" xmlns="http://www.w3.org/2000/svg" viewBox="0 0 12 18"><defs><style>.cls-1{fill:#fff;}</style></defs><title>link-2-2</title><g id="user"><path id="Shape" class="cls-1" d="M12,14.37a3,3,0,0,1-.92,2.18C10.07,17.54,8,18,6,18S1.91,17.56.92,16.55A3,3,0,0,1,0,14.37,10.17,10.17,0,0,1,1.56,9.08a6.61,6.61,0,0,1,1.66-1.8.58.58,0,0,0,.17-.4.76.76,0,0,0-.17-.59,3.84,3.84,0,0,1-1-2.54A3.74,3.74,0,0,1,6,0H6A3.74,3.74,0,0,1,9.75,3.76a3.84,3.84,0,0,1-1,2.54.85.85,0,0,0-.17.59.58.58,0,0,0,.17.4,6.61,6.61,0,0,1,1.66,1.8A10.31,10.31,0,0,1,12,14.37Zm-1.73,1.32a1.83,1.83,0,0,0,.52-1.32C10.79,10.09,8,7.49,6,7.49s-4.8,2.6-4.8,6.88a1.83,1.83,0,0,0,.52,1.32c.75.71,2.52,1,4.28,1S9.53,16.38,10.27,15.69Zm-1.71-12a2.59,2.59,0,1,0-5.18,0,2.59,2.59,0,1,0,5.18,0Z"/></g></svg>