<?xml version="1.0" encoding="UTF-8"?>
<svg width="12px" height="18px" viewBox="0 0 12 18" version="1.1" xmlns="http://www.w3.org/2000/svg" xmlns:xlink="http://www.w3.org/1999/xlink">
    <!-- Generator: Sketch 43 (38999) - http://www.bohemiancoding.com/sketch -->
    <title>2 пользователи</title>
    <desc>Created with Sketch.</desc>
    <defs></defs>
    <g id="Page-1" stroke="none" stroke-width="1" fill="none" fill-rule="evenodd">
        <g id="Artboard" transform="translate(-29.000000, -212.000000)" fill-rule="nonzero" fill="#B0B0B1">
            <g id="menu" transform="translate(0.000000, 161.000000)">
                <g id="2-пользователи" transform="translate(0.000000, 40.000000)">
                    <path d="M41,25.3706294 C41,26.2307692 40.6672444,26.965035 40.084922,27.5524476 C39.0658579,28.5384615 37.0069324,29 34.9896014,29 C32.9722704,29 30.9133449,28.5594406 29.915078,27.5524476 C29.3327556,26.965035 29,26.2307692 29,25.3706294 C29,23.5664336 29.5823224,21.6153846 30.559792,20.0839161 C31.0381282,19.3286713 31.5996534,18.7412587 32.2235702,18.2797203 C32.3275563,18.1538462 32.389948,18.048951 32.389948,17.8811189 C32.4315425,17.6713287 32.3483536,17.4615385 32.2235702,17.2937063 C31.6412478,16.6433566 31.2461005,15.7412587 31.2461005,14.7552448 C31.2461005,12.6783217 32.9098787,11 34.9688042,11 L34.9896014,11 L35.0311958,11 C37.1109185,11 38.7538995,12.6993007 38.7538995,14.7552448 C38.7538995,15.7412587 38.3587522,16.6433566 37.7764298,17.2937063 C37.6516464,17.4615385 37.5892548,17.6713287 37.610052,17.8811189 C37.610052,18.048951 37.6724437,18.1538462 37.7764298,18.2797203 C38.4003466,18.7412587 38.9618718,19.3286713 39.440208,20.0839161 C40.3968804,21.5944056 41,23.5664336 41,25.3706294 Z M39.2738302,26.6923077 C39.627383,26.3146853 39.7937608,25.8951049 39.7937608,25.3706294 C39.7937608,21.0909091 37.0069324,18.4895105 34.9688042,18.4895105 C32.9514731,18.4895105 30.1646447,21.0909091 30.1646447,25.3706294 C30.1646447,25.8951049 30.3310225,26.3146853 30.6845754,26.6923077 C31.4332756,27.4055944 33.2010399,27.7412587 34.9688042,27.7412587 C36.7573657,27.7412587 38.52513,27.3846154 39.2738302,26.6923077 Z M37.5684575,14.7132867 C37.5684575,13.2657343 36.4246101,12.0909091 34.9688042,12.0909091 C33.5129983,12.0909091 32.389948,13.2657343 32.389948,14.7132867 C32.389948,16.1608392 33.5545927,17.3356643 34.9688042,17.3356643 C36.4038128,17.3356643 37.5684575,16.1818182 37.5684575,14.7132867 Z" id="Shape"></path>
                </g>
            </g>
        </g>
    </g>
</svg>