<?xml version="1.0" encoding="UTF-8"?>
<svg width="15px" height="15px" viewBox="0 0 15 15" version="1.1" xmlns="http://www.w3.org/2000/svg" xmlns:xlink="http://www.w3.org/1999/xlink">
    <!-- Generator: Sketch 43 (38999) - http://www.bohemiancoding.com/sketch -->
    <title>6 языки</title>
    <desc>Created with Sketch.</desc>
    <defs></defs>
    <g id="Page-1" stroke="none" stroke-width="1" fill="none" fill-rule="evenodd">
        <g id="Artboard" transform="translate(-28.000000, -373.000000)" fill-rule="nonzero" fill="#fff">
            <g id="menu" transform="translate(0.000000, 161.000000)">
                <g id="6-языки" transform="translate(0.000000, 200.000000)">
                    <g id="ico" transform="translate(28.000000, 12.000000)">
                        <path d="M13.8801795,7.5007603 C13.8795459,7.81504752 13.8586695,8.12852693 13.8171542,8.44007392 C13.8237592,8.39093981 13.8303643,8.34182154 13.8369694,8.29268743 C13.7540496,8.89640971 13.5931045,9.48630412 13.3573495,10.0482735 C13.3759768,10.0041288 13.3946199,9.95998416 13.4132313,9.91583949 C13.1785216,10.469208 12.8738648,10.9899314 12.5067846,11.4658289 C12.5356758,11.4284477 12.5645671,11.3910348 12.5934741,11.3536378 C12.2291658,11.8228194 11.8072017,12.2444034 11.3377666,12.6083633 C11.3751637,12.579472 11.4125766,12.5505808 11.4499736,12.5216737 C10.9762144,12.8865364 10.458057,13.1899894 9.90766631,13.4237804 C9.95179514,13.4051531 9.99593981,13.38651 10.0400845,13.3678986 C9.47648363,13.605095 8.88414995,13.767038 8.27828933,13.8497202 C8.32742344,13.8431151 8.37654171,13.83651 8.42567582,13.8299208 C7.80848997,13.9120011 7.1825924,13.9119852 6.56540655,13.8299208 C6.61454065,13.83651 6.66365892,13.8431151 6.71279303,13.8497202 C6.1067265,13.7670222 5.51420275,13.6050792 4.95036431,13.3678986 C4.99450898,13.3865259 5.03865364,13.405169 5.08279831,13.4237804 C4.53212249,13.1899894 4.0136642,12.8865523 3.53960401,12.5216737 C3.57700106,12.5505649 3.6143981,12.5794562 3.65179514,12.6083633 C3.18212249,12.2444351 2.75990496,11.8228669 2.39540655,11.3536378 C2.42429778,11.3910348 2.45318902,11.4284477 2.48209609,11.4658289 C2.11488912,10.9899472 1.81024815,10.4692239 1.5755227,9.91583949 C1.59414995,9.95998416 1.61279303,10.0041288 1.63140444,10.0482735 C1.39566526,9.48630412 1.23470433,8.89639388 1.15178458,8.29268743 C1.15838965,8.34182154 1.16497888,8.39093981 1.17158395,8.44007392 C1.08853749,7.81667899 1.08852165,7.18479409 1.17161563,6.56139916 C1.16501056,6.61053326 1.15842133,6.65965153 1.15181626,6.7087698 C1.23476769,6.10512672 1.39580781,5.51527983 1.63165787,4.95343717 C1.61303062,4.99758184 1.59440338,5.0417265 1.57577614,5.08587117 C1.81059662,4.53266103 2.11531679,4.01206441 2.48265048,3.53643611 C2.45375924,3.57383316 2.424868,3.61124604 2.39596093,3.64862724 C2.76028511,3.18006336 3.18234424,2.75925554 3.65190602,2.39621436 C3.61450898,2.4251056 3.57709609,2.45399683 3.53971489,2.48290391 C4.0136642,2.11892819 4.53201162,1.81656811 5.08241816,1.58379092 L4.94998416,1.63967265 C5.51407603,1.40331573 6.10675818,1.24224393 6.71279303,1.16003696 C6.66365892,1.16664203 6.61454065,1.17323126 6.56542239,1.17983633 C7.18287751,1.09821542 7.80901267,1.09815206 8.42645195,1.17985216 C8.37731785,1.1732471 8.32819958,1.16665787 8.27908131,1.1600528 C8.88473601,1.24230729 9.47702218,1.40345829 10.0407022,1.63981521 C9.99655755,1.62118796 9.95241288,1.60256072 9.90828405,1.58393347 C10.4584688,1.81678986 10.9766103,2.11919747 11.4503537,2.48315734 C11.4129567,2.4542661 11.3755438,2.42537487 11.3381626,2.39646779 C11.807566,2.75950898 12.2294667,3.18030095 12.59368,3.64883316 C12.5647888,3.61143611 12.5358976,3.57403907 12.5069905,3.53664203 C12.8742133,4.01223865 13.1787117,4.53277191 13.4133105,5.08596621 C13.3946832,5.04182154 13.376056,4.99767687 13.3574446,4.95353221 C13.5931045,5.51543823 13.7540496,6.10528511 13.8369535,6.70892819 C13.8303485,6.65979409 13.8237434,6.61067582 13.8171542,6.56155755 C13.8586695,6.8730887 13.8795459,7.18652059 13.8801795,7.5007603 C13.8807973,7.80296199 14.1319007,8.05514256 14.4345618,8.05514256 C14.7363041,8.05514256 14.9895618,7.80296199 14.988944,7.5007603 C14.9869641,6.53016367 14.8023073,5.55456177 14.4266103,4.6588226 C14.0910982,3.85889652 13.6391183,3.13256072 13.0607392,2.48445618 C12.0004277,1.29635164 10.5305861,0.46031151 8.9681151,0.155417107 C7.29731785,-0.17062302 5.56346357,0.0730992608 4.04800422,0.847840549 C2.63475713,1.57034319 1.45788279,2.77793031 0.764144667,4.2042925 C-0.10593453,5.99323654 -0.244704329,8.10777719 0.423468849,9.98670539 C0.988780359,11.5764203 2.07657339,12.9345776 3.4976452,13.8426399 C4.87585533,14.7233316 6.56337909,15.1261932 8.19042767,14.9662777 C9.05082893,14.8817107 9.86930306,14.6570433 10.6553379,14.2983421 C11.3765576,13.9692133 12.0400106,13.5087276 12.6196093,12.9691552 C13.1967687,12.4318479 13.6909451,11.7910612 14.0695723,11.0997149 C14.5463411,10.2291605 14.8286959,9.28325766 14.943453,8.30000528 C14.9744034,8.03478881 14.9884213,7.76773495 14.9889599,7.5007603 C14.9895776,7.19854277 14.73632,6.94637804 14.4345776,6.94637804 C14.1319007,6.94637804 13.8807973,7.19857445 13.8801795,7.5007603 Z" id="Shape"></path>
                        <path d="M6.94203801,0.563648363 L6.94317846,2.09916051 C6.94392291,3.11339493 6.94468321,4.12761352 6.94544351,5.14184794 C6.94599789,5.87653115 6.94653643,6.6112302 6.94709081,7.34591341 C6.94732841,7.67508976 6.94675818,8.0042661 6.94647307,8.33345829 C6.94564942,9.28346357 6.94484161,10.233453 6.94401795,11.1834424 C6.94325766,12.0809715 6.94248152,12.9784847 6.94170539,13.8759979 C6.94154699,14.066151 6.94137276,14.25632 6.94121436,14.4464731 C6.94094509,14.7486748 7.19358501,15.0008553 7.49559662,15.0008553 C7.79800422,15.0008553 8.04970961,14.7486748 8.04997888,14.4464731 C8.05040655,13.9356177 8.05086589,13.4247782 8.05129356,12.9139229 C8.05216473,11.8996727 8.0530359,10.8854224 8.05390707,9.87115628 C8.05454065,9.13097677 8.05517423,8.39076558 8.05580781,7.65057022 C8.05609293,7.32465681 8.05557022,6.9987434 8.05534847,6.67282999 C8.05463569,5.72548574 8.05392291,4.77815734 8.05322598,3.83081309 C8.05256072,2.93234952 8.05189546,2.03388596 8.0512302,1.13542239 C8.05107181,0.944825766 8.05092925,0.754229145 8.05080253,0.563632524 C8.05058078,0.261430834 7.7987962,0.00925026399 7.49642027,0.00925026399 C7.19439282,0.00926610348 6.94181626,0.261430834 6.94203801,0.563648363 L6.94203801,0.563648363 Z" id="Shape"></path>
                        <path d="M14.4306019,6.94653643 L13.5641499,6.94653643 L11.3562038,6.94653643 L8.39383844,6.94653643 L5.26416051,6.94653643 L2.55424498,6.94653643 L0.851198522,6.94653643 L0.556013728,6.94653643 C0.253812038,6.94653643 0.00163146779,7.198717 0.00163146779,7.50091869 C0.00163146779,7.80312038 0.253812038,8.05530095 0.556013728,8.05530095 L1.42246568,8.05530095 L3.63042767,8.05530095 L6.59277719,8.05530095 L9.72245512,8.05530095 L12.4323706,8.05530095 L14.1354329,8.05530095 L14.4306177,8.05530095 C14.7328194,8.05530095 14.985,7.80312038 14.985,7.50091869 C14.985,7.198717 14.7328036,6.94653643 14.4306019,6.94653643 L14.4306019,6.94653643 Z" id="Shape"></path>
                        <path d="M7.77540127,13.9677878 C7.62758712,13.8674129 7.48295671,13.7625713 7.34155755,13.6533263 C7.37895459,13.6822175 7.41635164,13.7111088 7.45374868,13.7400158 C6.88886484,13.3010876 6.38128828,12.7922756 5.94321542,12.226774 C5.97210665,12.2641552 6.00099789,12.3015681 6.02990496,12.3389652 C5.58508448,11.7614414 5.21559662,11.1289229 4.93203801,10.4573284 C4.95066526,10.5014731 4.9692925,10.5456177 4.98791975,10.5897624 C4.70299894,9.90956705 4.50852165,9.19452482 4.40985744,8.46367476 C4.41646251,8.51280887 4.42305174,8.56192714 4.42965681,8.61106125 C4.33233897,7.87374868 4.33216473,7.12555438 4.42907075,6.3881943 C4.42246568,6.43731257 4.41587645,6.48644667 4.40927138,6.53556494 C4.50807814,5.80034319 4.70409187,5.08113516 4.9923548,4.39758184 C4.97372756,4.4417265 4.95510032,4.48587117 4.93647307,4.53001584 C5.21703801,3.86995248 5.58133052,3.24829989 6.01889652,2.68007392 C5.99000528,2.71747096 5.96111404,2.75488384 5.93220697,2.79226505 C6.37341605,2.222566 6.88541183,1.71071278 7.45495248,1.26928194 C7.41755544,1.29817318 7.38015839,1.32706441 7.34276135,1.35597149 C7.48408131,1.24705913 7.62858501,1.1424868 7.77624076,1.04231785 C8.02577614,0.873009504 8.13560718,0.557771911 7.97513728,0.283812038 C7.83017423,0.0363357973 7.46705385,-0.0849788807 7.21663147,0.0849155227 C5.86574446,1.00145195 4.75629884,2.26807286 4.07385428,3.755132 C3.72465681,4.51604541 3.47483633,5.31529039 3.35352165,6.1443453 C3.28791447,6.59268215 3.24796727,7.04242872 3.24730201,7.49572334 C3.24663675,7.94377508 3.2882471,8.38769271 3.3507339,8.83100845 C3.58335269,10.481246 4.32364308,12.0316156 5.39393347,13.3011193 C5.92007392,13.9251954 6.54109293,14.4669535 7.21580781,14.9251267 C7.46616684,15.095132 7.82938226,14.9736431 7.97431362,14.7262302 C8.13483105,14.4522386 8.02487328,14.1371911 7.77540127,13.9677878 L7.77540127,13.9677878 Z" id="Shape"></path>
                        <path d="M7.77540127,14.9251742 C9.13088173,14.0047096 10.2390444,12.7279039 10.9189863,11.2336695 C11.267471,10.46783 11.5164836,9.66464097 11.6361352,8.83104013 C11.6997466,8.38794615 11.7393295,7.94363252 11.7393295,7.49575502 C11.7393295,7.04227033 11.6975132,6.5929831 11.6334583,6.14437698 C11.3990971,4.50329461 10.6619271,2.96249208 9.59480465,1.70147835 C9.06918691,1.08033263 8.44897571,0.541393875 7.77622492,0.0849472017 C7.52578669,-0.0849630412 7.16269799,0.0363674762 7.01771911,0.283843717 C6.85724921,0.557787751 6.96708025,0.873041183 7.21661563,1.04234952 C7.3642397,1.14250264 7.50871172,1.24707497 7.65,1.35600317 C7.6126188,1.32709609 7.57520591,1.29820486 7.53780887,1.26931362 C8.10698522,1.71061774 8.61847413,2.22250264 9.05900211,2.79229673 C9.03011088,2.75489968 9.00121964,2.71750264 8.97231257,2.6801056 C9.40916579,3.24836325 9.77257128,3.8700792 10.0523284,4.53004752 C10.0337012,4.48590285 10.0150581,4.44175818 9.99644667,4.39761352 C10.2807973,5.0737698 10.4749578,5.78472545 10.5744139,6.51144139 C10.5678089,6.46232313 10.5612038,6.41318902 10.5545987,6.36407075 C10.6543717,7.10922386 10.6552746,7.86570222 10.5571647,8.61107709 C10.5637698,8.56194298 10.5703749,8.51282471 10.5769641,8.4636906 C10.4775554,9.20228617 10.2804646,9.92480465 9.99110876,10.6115892 C10.009736,10.5674446 10.0283791,10.5232999 10.0469905,10.4791552 C9.76523759,11.1426082 9.39959873,11.767698 8.96011616,12.338981 C8.98900739,12.3015839 9.01789863,12.2641711 9.0468057,12.2267899 C8.60447202,12.7985164 8.09097149,13.3122386 7.51895987,13.7542714 C7.55635692,13.7253801 7.5937698,13.6964889 7.63116684,13.6675818 C7.49564414,13.7717107 7.35719113,13.8718004 7.21579197,13.9678036 C6.96631996,14.137207 6.85637804,14.4522703 7.01689546,14.7263094 C7.16182682,14.9736748 7.52505808,15.0951795 7.77540127,14.9251742 L7.77540127,14.9251742 Z" id="Shape"></path>
                        <path d="M1.30309926,4.91702218 L2.26031151,4.91702218 L4.64092397,4.91702218 L7.70836853,4.91702218 L10.7261088,4.91702218 L12.9575607,4.91702218 L13.6861774,4.91702218 C13.9883791,4.91702218 14.2405597,4.66484161 14.2405597,4.36263992 C14.2405597,4.06043823 13.9883791,3.80825766 13.6861774,3.80825766 L12.7289493,3.80825766 L10.3483527,3.80825766 L7.28090813,3.80825766 L4.2631679,3.80825766 L2.03171595,3.80825766 L1.30309926,3.80825766 C1.00089757,3.80825766 0.748717001,4.06043823 0.748717001,4.36263992 C0.748717001,4.66484161 1.00089757,4.91702218 1.30309926,4.91702218 L1.30309926,4.91702218 Z" id="Shape"></path>
                        <path d="M13.6859873,10.0848469 L12.7287592,10.0848469 L10.3481151,10.0848469 L7.28062302,10.0848469 L4.26285111,10.0848469 L2.03136748,10.0848469 L1.30275079,10.0848469 C1.0005491,10.0848469 0.748368532,10.3370275 0.748368532,10.6392291 C0.748368532,10.9414308 1.0005491,11.1936114 1.30275079,11.1936114 L2.25997888,11.1936114 L4.64060718,11.1936114 L7.70809926,11.1936114 L10.7258553,11.1936114 L12.9573548,11.1936114 L13.6859715,11.1936114 C13.9881732,11.1936114 14.2403537,10.9414308 14.2403537,10.6392291 C14.2403537,10.3370275 13.9882049,10.0848469 13.6859873,10.0848469 L13.6859873,10.0848469 Z" id="Shape"></path>
                    </g>
                </g>
            </g>
        </g>
    </g>
</svg>