<?xml version="1.0" encoding="UTF-8"?>
<svg width="19px" height="15px" viewBox="0 0 19 15" version="1.1" xmlns="http://www.w3.org/2000/svg" xmlns:xlink="http://www.w3.org/1999/xlink">
    <!-- Generator: Sketch 43 (38999) - http://www.bohemiancoding.com/sketch -->
    <title>4 типы элементов</title>
    <desc>Created with Sketch.</desc>
    <defs></defs>
    <g id="Page-1" stroke="none" stroke-width="1" fill="none" fill-rule="evenodd">
        <g id="Artboard" transform="translate(-26.000000, -294.000000)" fill-rule="nonzero" fill="#fff">
            <g id="menu" transform="translate(0.000000, 161.000000)">
                <g id="4-типы-элементов" transform="translate(0.000000, 120.000000)">
                    <g id="Group" transform="translate(26.000000, 13.000000)">
                        <path d="M1.58333333,12.6666667 L1.58333333,1.58333333 L8.70833333,1.58333333 L8.70833333,5.54166667 C8.70833333,5.75162972 8.7917408,5.95299323 8.94020712,6.10145953 L9.96374757,7.125 L8.94020712,8.14854045 C8.7917408,8.29700677 8.70833333,8.49837027 8.70833333,8.70833333 L8.70833333,12.6666667 L1.58333333,12.6666667 Z M11.6431262,7.68479287 C11.9522913,7.3756278 11.9522913,6.8743722 11.6431262,6.56520713 L10.2916667,5.2137476 L10.2916667,0.791666667 C10.2916667,0.35444124 9.93722539,0 9.5,0 L1.58333333,0 C0.709107906,0 0,0.709107906 0,1.58333333 L0,12.6666667 C0,13.5408921 0.709107906,14.25 1.58333333,14.25 L9.5,14.25 C9.93722539,14.25 10.2916667,13.8955587 10.2916667,13.4583333 L10.2916667,9.03625243 L11.6431262,7.68479287 Z" id="Shape"></path>
                        <path d="M8.94020712,8.14854045 C8.7917408,8.29700677 8.70833333,8.49837027 8.70833333,8.70833333 L8.70833333,13.4583333 C8.70833333,13.8955587 9.06277461,14.25 9.5,14.25 L17.4166667,14.25 C18.2908921,14.25 19,13.5408921 19,12.6666667 L19,1.58333333 C19,0.709107906 18.2908921,0 17.4166667,0 L9.5,0 C9.06277461,0 8.70833333,0.35444124 8.70833333,0.791666667 L8.70833333,5.54166667 C8.70833333,5.75162972 8.7917408,5.95299323 8.94020712,6.10145953 L9.96374757,7.125 L8.94020712,8.14854045 Z M17.4166667,1.58333333 L17.4166667,12.6666667 L10.2916667,12.6666667 L10.2916667,9.03625243 L11.6431262,7.68479287 C11.9522913,7.3756278 11.9522913,6.8743722 11.6431262,6.56520713 L10.2916667,5.2137476 L10.2916667,1.58333333 L17.4166667,1.58333333 Z" id="Shape"></path>
                        <path d="M3.16666667,4.75 L6.33333333,4.75 C6.77055876,4.75 7.125,4.39555876 7.125,3.95833333 C7.125,3.52110791 6.77055876,3.16666667 6.33333333,3.16666667 L3.16666667,3.16666667 C2.72944124,3.16666667 2.375,3.52110791 2.375,3.95833333 C2.375,4.39555876 2.72944124,4.75 3.16666667,4.75 Z" id="Shape"></path>
                        <path d="M3.16666667,11.0833333 L6.33333333,11.0833333 C6.77055876,11.0833333 7.125,10.7288921 7.125,10.2916667 C7.125,9.85444128 6.77055876,9.5 6.33333333,9.5 L3.16666667,9.5 C2.72944124,9.5 2.375,9.85444128 2.375,10.2916667 C2.375,10.7288921 2.72944124,11.0833333 3.16666667,11.0833333 Z" id="Shape"></path>
                        <path d="M3.95833333,7.91666667 L7.125,7.91666667 C7.56222543,7.91666667 7.91666667,7.56222543 7.91666667,7.125 C7.91666667,6.68777457 7.56222543,6.33333333 7.125,6.33333333 L3.95833333,6.33333333 C3.52110791,6.33333333 3.16666667,6.68777457 3.16666667,7.125 C3.16666667,7.56222543 3.52110791,7.91666667 3.95833333,7.91666667 Z" id="Shape"></path>
                        <path d="M11.875,4.75 L15.0416667,4.75 C15.4788921,4.75 15.8333333,4.39555876 15.8333333,3.95833333 C15.8333333,3.52110791 15.4788921,3.16666667 15.0416667,3.16666667 L11.875,3.16666667 C11.4377746,3.16666667 11.0833333,3.52110791 11.0833333,3.95833333 C11.0833333,4.39555876 11.4377746,4.75 11.875,4.75 Z" id="Shape"></path>
                        <path d="M11.875,11.0833333 L15.0416667,11.0833333 C15.4788921,11.0833333 15.8333333,10.7288921 15.8333333,10.2916667 C15.8333333,9.85444128 15.4788921,9.5 15.0416667,9.5 L11.875,9.5 C11.4377746,9.5 11.0833333,9.85444128 11.0833333,10.2916667 C11.0833333,10.7288921 11.4377746,11.0833333 11.875,11.0833333 Z" id="Shape"></path>
                        <path d="M13.4583333,7.91666667 L15.8333333,7.91666667 C16.2705587,7.91666667 16.625,7.56222543 16.625,7.125 C16.625,6.68777457 16.2705587,6.33333333 15.8333333,6.33333333 L13.4583333,6.33333333 C13.0211079,6.33333333 12.6666667,6.68777457 12.6666667,7.125 C12.6666667,7.56222543 13.0211079,7.91666667 13.4583333,7.91666667 Z" id="Shape"></path>
                    </g>
                </g>
            </g>
        </g>
    </g>
</svg>