<?xml version="1.0" encoding="UTF-8"?>
<svg width="16px" height="16px" viewBox="0 0 16 16" version="1.1" xmlns="http://www.w3.org/2000/svg" xmlns:xlink="http://www.w3.org/1999/xlink">
    <!-- Generator: Sketch 43 (38999) - http://www.bohemiancoding.com/sketch -->
    <title>5 роли</title>
    <desc>Created with Sketch.</desc>
    <defs></defs>
    <g id="Page-1" stroke="none" stroke-width="1" fill="none" fill-rule="evenodd">
        <g id="Artboard" transform="translate(-27.000000, -333.000000)" fill-rule="nonzero" fill="#fff">
            <g id="menu" transform="translate(0.000000, 161.000000)">
                <g id="5-роли" transform="translate(0.000000, 160.000000)">
                    <g id="ico" transform="translate(27.000000, 12.000000)">
                        <path d="M9.12380952,13.0285714 C9.33333333,13.352381 9.58095238,13.6571429 9.9047619,13.8666667 C10.3619048,14.1904762 10.8952381,14.3809524 11.5047619,14.3809524 C12.8,14.3809524 13.8666667,13.5047619 14.1904762,12.3238095 C14.2666667,12.0952381 14.2857143,11.8666667 14.2857143,11.6 C14.2857143,11.5047619 14.2857143,11.4285714 14.2666667,11.352381 C14.1714286,10.1714286 13.3142857,9.16190476 12.1714286,8.8952381 C11.9619048,8.85714286 11.7333333,8.8 11.5047619,8.8 C11.4095238,8.8 11.3142857,8.8 11.2,8.81904762 C11.1619048,8.81904762 11.1047619,8.81904762 11.0666667,8.83809524 C9.75238095,9.04761905 8.7047619,10.2095238 8.7047619,11.6 C8.7047619,12.0952381 8.87619048,12.6095238 9.12380952,13.0285714 Z M8.0952381,13.0857143 C7.88571429,12.6285714 7.77142857,12.1142857 7.77142857,11.5809524 C7.77142857,9.88571429 8.91428571,8.47619048 10.4380952,8 C10.5333333,7.98095238 10.647619,7.96190476 10.7428571,7.92380952 C10.3619048,7.31428571 9.92380952,6.83809524 9.44761905,6.51428571 C9.2,6.32380952 8.95238095,6.19047619 8.7047619,6.0952381 C8.4,5.98095238 8.13333333,5.9047619 7.84761905,5.9047619 C7.61904762,5.9047619 7.35238095,5.94285714 7.1047619,6.03809524 C6.85714286,6.13333333 6.59047619,6.24761905 6.34285714,6.43809524 C5.16190476,7.21904762 4.07619048,8.91428571 4.07619048,11.2380952 C4.07619048,11.447619 4.11428571,11.6380952 4.19047619,11.7904762 C4.26666667,11.9809524 4.38095238,12.1142857 4.51428571,12.247619 C4.68571429,12.3809524 4.8952381,12.5333333 5.14285714,12.6285714 C5.9047619,12.9714286 7.00952381,13.1047619 8.0952381,13.0857143 Z M15.8857143,10.1333333 C15.8857143,10.7428571 15.6380952,11.2571429 15.2380952,11.6571429 C15.2380952,11.6571429 15.2380952,11.6761905 15.2190476,11.6761905 C15.1428571,13.6761905 13.5238095,15.2761905 11.5047619,15.2761905 C10.3809524,15.2761905 9.39047619,14.7809524 8.72380952,14.0190476 C6.8952381,14.1904762 4.81904762,13.847619 3.88571429,12.9333333 C3.79047619,12.8380952 3.71428571,12.7428571 3.63809524,12.647619 C2.43809524,12.5714286 1.2952381,12.247619 0.685714286,11.6571429 C0.266666667,11.2380952 0.0380952381,10.7238095 0.0380952381,10.1333333 C0.0380952381,8.87619048 0.457142857,7.48571429 1.16190476,6.41904762 C1.5047619,5.88571429 1.9047619,5.46666667 2.34285714,5.14285714 C2.41904762,5.06666667 2.43809524,4.97142857 2.45714286,4.8952381 C2.47619048,4.76190476 2.43809524,4.59047619 2.34285714,4.47619048 C1.92380952,4.01904762 1.63809524,3.39047619 1.63809524,2.68571429 C1.63809524,1.21904762 2.81904762,0.0380952381 4.28571429,0.0380952381 C4.95238095,0.0380952381 5.56190476,0.285714286 6.01904762,0.704761905 C6.53333333,0.285714286 7.16190476,0.0571428571 7.84761905,0.0571428571 C8.59047619,0.0571428571 9.25714286,0.342857143 9.77142857,0.780952381 C10.2285714,0.323809524 10.8952381,0.0380952381 11.6,0.0380952381 C13.0666667,0.0380952381 14.247619,1.21904762 14.247619,2.68571429 C14.247619,3.35238095 14,3.98095238 13.5428571,4.47619048 C13.447619,4.60952381 13.4285714,4.76190476 13.4285714,4.8952381 C13.447619,4.99047619 13.4666667,5.08571429 13.5428571,5.14285714 C13.9809524,5.46666667 14.3809524,5.88571429 14.7238095,6.41904762 C15.4666667,7.48571429 15.8857143,8.8952381 15.8857143,10.1333333 Z M15.0095238,10.4 C15.0285714,10.3047619 15.0285714,10.2285714 15.0285714,10.152381 C15.047619,7.16190476 13.047619,5.33333333 11.6380952,5.33333333 C11.2,5.33333333 10.6857143,5.52380952 10.1904762,5.84761905 C10.6095238,6.17142857 11.0095238,6.60952381 11.3333333,7.12380952 C11.5047619,7.35238095 11.6380952,7.58095238 11.752381,7.86666667 C13.2761905,7.98095238 14.552381,9.00952381 15.0095238,10.4 Z M13.0857143,3.73333333 C13.2952381,3.42857143 13.4095238,3.08571429 13.4095238,2.68571429 C13.4095238,1.6952381 12.5904762,0.876190476 11.6,0.876190476 C11.0857143,0.876190476 10.647619,1.08571429 10.3238095,1.40952381 C10.6095238,1.86666667 10.7809524,2.4 10.7809524,2.97142857 C10.7809524,3.39047619 10.6857143,3.75238095 10.552381,4.13333333 C10.8571429,4.36190476 11.2190476,4.47619048 11.6190476,4.47619048 C12.1333333,4.47619048 12.5904762,4.26666667 12.9142857,3.92380952 C12.9714286,3.86666667 13.0285714,3.80952381 13.0857143,3.73333333 Z M9.80952381,2.91428571 C9.80952381,1.82857143 8.93333333,0.933333333 7.82857143,0.933333333 C6.72380952,0.933333333 5.84761905,1.80952381 5.84761905,2.91428571 C5.84761905,4.01904762 6.72380952,4.8952381 7.82857143,4.8952381 C8.93333333,4.8952381 9.80952381,4.01904762 9.80952381,2.91428571 Z M4.95238095,2.99047619 C4.95238095,2.36190476 5.14285714,1.80952381 5.46666667,1.33333333 C5.14285714,1.04761905 4.74285714,0.895238095 4.28571429,0.895238095 C3.2952381,0.895238095 2.47619048,1.71428571 2.47619048,2.7047619 C2.47619048,3.1047619 2.59047619,3.44761905 2.81904762,3.75238095 C2.8952381,3.82857143 2.93333333,3.88571429 2.99047619,3.96190476 C3.31428571,4.3047619 3.77142857,4.51428571 4.28571429,4.51428571 C4.62857143,4.51428571 4.95238095,4.41904762 5.21904762,4.22857143 C5.02857143,3.84761905 4.95238095,3.42857143 4.95238095,2.99047619 Z M4.41904762,7.12380952 C4.76190476,6.57142857 5.18095238,6.13333333 5.65714286,5.77142857 C5.21904762,5.46666667 4.72380952,5.31428571 4.3047619,5.31428571 C2.8952381,5.31428571 0.895238095,7.14285714 0.895238095,10.1142857 C0.895238095,10.4952381 1.00952381,10.7809524 1.2952381,11.047619 C1.67619048,11.3904762 2.41904762,11.6190476 3.23809524,11.7142857 C3.2,11.5428571 3.2,11.3904762 3.2,11.2 C3.16190476,9.84761905 3.61904762,8.3047619 4.41904762,7.12380952 Z" id="Shape"></path>
                        <path d="M10.8571429,12.952381 L10.0380952,12.1714286 C9.9047619,12.0571429 9.86666667,11.8857143 9.94285714,11.7142857 C10.0571429,11.447619 10.4380952,11.352381 10.6285714,11.5619048 C10.8,11.7142857 10.952381,11.8666667 11.1238095,12.0380952 C11.6,11.5047619 12.0761905,10.9904762 12.5333333,10.4571429 C12.7428571,10.2285714 13.1047619,10.3047619 13.2380952,10.5714286 C13.3142857,10.7238095 13.2761905,10.8952381 13.1619048,11.0285714 C12.7619048,11.4857143 12.3619048,11.9428571 11.9428571,12.3809524 L11.4666667,12.9142857 C11.3904762,13.0095238 11.2761905,13.047619 11.1428571,13.047619 C11.047619,13.0666667 10.9333333,13.0285714 10.8571429,12.952381 Z" id="Shape"></path>
                    </g>
                </g>
            </g>
        </g>
    </g>
</svg>