<?xml version="1.0" encoding="UTF-8"?>
<svg width="16px" height="15px" viewBox="0 0 16 15" version="1.1" xmlns="http://www.w3.org/2000/svg" xmlns:xlink="http://www.w3.org/1999/xlink">
    <!-- Generator: Sketch 43 (38999) - http://www.bohemiancoding.com/sketch -->
    <title>ico</title>
    <desc>Created with Sketch.</desc>
    <defs></defs>
    <g id="Page-1" stroke="none" stroke-width="1" fill="none" fill-rule="evenodd">
        <g id="Artboard" transform="translate(-27.000000, -414.000000)">
            <g id="menu" transform="translate(0.000000, 161.000000)">
                <g id="7-чат" transform="translate(0.000000, 240.000000)">
                    <g id="ico" transform="translate(27.000000, 13.000000)">
                        <path d="M13.624,0.9808 L2.376,0.9808 C2.00002903,0.981224107 1.63962536,1.13098485 1.37407379,1.39713653 C1.10852223,1.66328821 0.959575414,2.02402903 0.96,2.4 L0.96,8.6592 C0.959150441,9.03544794 1.10790955,9.3966 1.37350715,9.66309794 C1.63910476,9.92959588 1.99975133,10.0795763 2.376,10.08 L4.16,10.08 L4.16,12.7104 L6.736,10.3296 L7.0128,10.08 L13.624,10.08 C14.0002487,10.0795763 14.3608952,9.92959588 14.6264928,9.66309794 C14.8920905,9.3966 15.0408496,9.03544794 15.04,8.6592 L15.04,2.4 C15.0404246,2.02402903 14.8914778,1.66328821 14.6259262,1.39713653 C14.3603746,1.13098485 13.999971,0.981224107 13.624,0.9808 L13.624,0.9808 Z M4.7552,6.5952 C4.38136562,6.59776459 4.04315071,6.37385785 3.89950963,6.02871157 C3.75586855,5.68356528 3.83536654,5.28581709 4.10064111,5.02240084 C4.36591568,4.75898459 4.76421289,4.68228465 5.10834089,4.82834848 C5.45246888,4.97441232 5.6739925,5.31419289 5.6688,5.688 C5.66355307,6.18933727 5.25656177,6.59347749 4.7552,6.5952 L4.7552,6.5952 Z M7.9904,6.5952 C7.48273995,6.59077859 7.07461432,6.17596985 7.07843844,5.66830495 C7.08226256,5.16064005 7.49659082,4.75202666 8.00425987,4.75525347 C8.51192892,4.75848029 8.92102951,5.17232751 8.9184,5.68 C8.91054369,6.18714938 8.49760958,6.59438785 7.9904,6.5952 Z M11.2448,6.5952 C10.7369177,6.59783752 10.3229761,6.18841565 10.3200377,5.68053498 C10.3170994,5.1726543 10.726276,4.75847028 11.2341549,4.75523112 C11.7420337,4.75199195 12.15646,5.16092316 12.16,5.6688 C12.1621305,5.91320431 12.0667514,6.14837654 11.8949792,6.32225091 C11.7232069,6.49612528 11.4892121,6.59435767 11.2448,6.5952 L11.2448,6.5952 Z" id="Shape"></path>
                        <path d="M13.624,0.0208 L2.376,0.0208 C1.74529079,0.020799428 1.14046044,0.271566501 0.694781904,0.717845278 C0.249103368,1.16412405 -0.00084944001,1.76929136 -1.42613938e-14,2.4 L-1.42613938e-14,8.6592 C-0.00127472104,9.29018563 0.248490279,9.89576439 0.694214952,10.3423895 C1.13993962,10.7890146 1.74501308,11.0400013 2.376,11.04 L3.2,11.04 L3.2,13.12 C3.2,13.736 3.4304,14.0688 3.7808,14.0688 C3.992,14.0688 4.2448,13.9488 4.5184,13.696 L7.3888,11.04 L13.6288,11.04 C14.2589548,11.0387282 14.8627947,10.7871799 15.3074812,10.340693 C15.7521678,9.89420613 16.0012743,9.28935477 16,8.6592 L16,2.4 C16.0008494,1.76929136 15.7508966,1.16412405 15.3052181,0.717845278 C14.8595396,0.271566501 14.2547092,0.020799428 13.624,0.0208 L13.624,0.0208 Z M15.04,8.6608 C15.0404246,9.03677097 14.8914778,9.39751179 14.6259262,9.66366347 C14.3603746,9.92981515 13.999971,10.0795759 13.624,10.08 L7.0128,10.08 L6.7376,10.336 L4.16,12.7104 L4.16,10.08 L2.376,10.08 C1.99975133,10.0795763 1.63910476,9.92959588 1.37350715,9.66309794 C1.10790955,9.3966 0.959150441,9.03544794 0.96,8.6592 L0.96,2.4 C0.960881749,1.61833032 1.59433032,0.984881749 2.376,0.984 L13.624,0.984 C14.4056697,0.984881749 15.0391183,1.61833032 15.04,2.4 L15.04,8.6592 L15.04,8.6608 Z" id="Shape" fill="#fff" fill-rule="nonzero"></path>
                        <path d="M8,4.7552 C7.4921117,4.75344035 7.07887751,5.16358049 7.0768201,5.67146767 C7.07476269,6.17935485 7.4846605,6.59282943 7.99254639,6.59518459 C8.50043227,6.59753975 8.91414708,6.18788442 8.9168,5.68 C8.91508884,5.17306896 8.50689704,4.76131528 8,4.7552 Z" id="Shape" fill="#B0B0B1" fill-rule="nonzero"></path>
                        <path d="M4.7632,4.7552 C4.39099908,4.75004908 4.05237065,4.96969119 3.90531075,5.31164651 C3.75825084,5.65360184 3.83174181,6.05047833 4.0914945,6.31710278 C4.35124719,6.58372724 4.74606992,6.6675537 5.09174774,6.52947073 C5.43742556,6.39138776 5.66583278,6.05860854 5.6704,5.6864 C5.67424569,5.44241975 5.58067104,5.20697219 5.41039654,5.03219307 C5.24012203,4.85741394 5.00719749,4.75772478 4.7632,4.7552 L4.7632,4.7552 Z" id="Shape" fill="#B0B0B1" fill-rule="nonzero"></path>
                        <path d="M11.2528,4.7552 C10.8789929,4.7500075 10.5392123,4.97153112 10.3931485,5.31565911 C10.2470846,5.65978711 10.3237846,6.05808432 10.5872008,6.32335889 C10.8506171,6.58863346 11.2483653,6.66813145 11.5935116,6.52449037 C11.9386579,6.38084929 12.1625646,6.04263438 12.16,5.6688 C12.1582775,5.16743823 11.7541373,4.76044693 11.2528,4.7552 L11.2528,4.7552 Z" id="Shape" fill="#B0B0B1" fill-rule="nonzero"></path>
                    </g>
                </g>
            </g>
        </g>
    </g>
</svg>