<?xml version="1.0" encoding="UTF-8"?>
<svg width="16px" height="20px" viewBox="0 0 16 20" version="1.1" xmlns="http://www.w3.org/2000/svg" xmlns:xlink="http://www.w3.org/1999/xlink">
    <!-- Generator: Sketch 43 (38999) - http://www.bohemiancoding.com/sketch -->
    <title>3 титры</title>
    <desc>Created with Sketch.</desc>
    <defs></defs>
    <g id="Page-1" stroke="none" stroke-width="1" fill="none" fill-rule="evenodd">
        <g id="Artboard" transform="translate(-27.000000, -251.000000)" fill="#fff">
            <g id="menu" transform="translate(0.000000, 161.000000)">
                <g id="3-титры" transform="translate(0.000000, 80.000000)">
                    <path d="M27.5925926,10 C27.2653129,10 27,10.2653129 27,10.5925926 L27,19.4814815 C27,19.8087612 27.2653129,20.0740741 27.5925926,20.0740741 L42.4074074,20.0740741 C42.7346871,20.0740741 43,19.8087612 43,19.4814815 L43,10.5925926 C43,10.2653129 42.7346871,10 42.4074074,10 L27.5925926,10 Z M41.8148148,11.1851852 L41.8148148,18.8888889 L28.1851852,18.8888889 L28.1851852,11.1851852 L41.8148148,11.1851852 Z M27.5925926,21.5555556 C27.2653129,21.5555556 27,21.8208684 27,22.1481481 L27,24.5185185 C27,24.8457982 27.2653129,25.1111111 27.5925926,25.1111111 L39.4444444,25.1111111 C39.7717241,25.1111111 40.037037,24.8457982 40.037037,24.5185185 L40.037037,22.1481481 C40.037037,21.8208684 39.7717241,21.5555556 39.4444444,21.5555556 L27.5925926,21.5555556 Z M38.8518519,22.7407407 L38.8518519,23.9259259 L28.1851852,23.9259259 L28.1851852,22.7407407 L38.8518519,22.7407407 Z M33.8148148,14.1490634 L33.8148148,15.9268412 C33.8148148,16.3874601 34.3173161,16.6719716 34.7122939,16.4349852 L36.1937754,15.5460963 C36.5773834,15.3159313 36.5773834,14.7599733 36.1937754,14.5298083 L34.7122939,13.6409194 C34.3173161,13.403933 33.8148148,13.6884444 33.8148148,14.1490634 Z M27.5925926,27.4814815 L42.4074074,27.4814815 C42.7346871,27.4814815 43,27.2161686 43,26.8888889 C43,26.5616092 42.7346871,26.2962963 42.4074074,26.2962963 L27.5925926,26.2962963 C27.2653129,26.2962963 27,26.5616092 27,26.8888889 C27,27.2161686 27.2653129,27.4814815 27.5925926,27.4814815 Z M27.5925926,29.5555556 L34.7037037,29.5555556 C35.0309834,29.5555556 35.2962963,29.2902427 35.2962963,28.962963 C35.2962963,28.6356833 35.0309834,28.3703704 34.7037037,28.3703704 L27.5925926,28.3703704 C27.2653129,28.3703704 27,28.6356833 27,28.962963 C27,29.2902427 27.2653129,29.5555556 27.5925926,29.5555556 Z" id="Shape"></path>
                </g>
            </g>
        </g>
    </g>
</svg>